<?xml version="1.0" encoding="UTF-8"?>
<svg xmlns="http://www.w3.org/2000/svg" width="1000" height="896" viewBox="0 0 1000 896">
<style>
  text { font-family: Arial, Helvetica, sans-serif; fill: #202020; }
  .title { font-size: 16px; font-weight: 700; }
  .label { font-size: 12px; }
  .tick { font-size: 11px; fill: #555; }
  .legend { font-size: 12px; }
  .grid { stroke: #e8e8e8; stroke-width: 1; }
  .axis { stroke: #333; stroke-width: 1.2; }
</style>
<rect x="20" y="10" width="960" height="280" fill="#ffffff" stroke="#d0d0d0"/>
<text x="500.0" y="32.0" text-anchor="middle" class="title">Jaw angle - nut stroke</text>
<line x1="82.00" y1="44" x2="82.00" y2="248" class="grid"/>
<text x="82.00" y="266" text-anchor="middle" class="tick">0</text>
<line x1="302.00" y1="44" x2="302.00" y2="248" class="grid"/>
<text x="302.00" y="266" text-anchor="middle" class="tick">4</text>
<line x1="522.00" y1="44" x2="522.00" y2="248" class="grid"/>
<text x="522.00" y="266" text-anchor="middle" class="tick">8</text>
<line x1="742.00" y1="44" x2="742.00" y2="248" class="grid"/>
<text x="742.00" y="266" text-anchor="middle" class="tick">12</text>
<line x1="962.00" y1="44" x2="962.00" y2="248" class="grid"/>
<text x="962.00" y="266" text-anchor="middle" class="tick">16</text>
<line x1="82" y1="248.00" x2="962" y2="248.00" class="grid"/>
<text x="74" y="252.00" text-anchor="end" class="tick">-3.84</text>
<line x1="82" y1="197.00" x2="962" y2="197.00" class="grid"/>
<text x="74" y="201.00" text-anchor="end" class="tick">10.11</text>
<line x1="82" y1="146.00" x2="962" y2="146.00" class="grid"/>
<text x="74" y="150.00" text-anchor="end" class="tick">24.07</text>
<line x1="82" y1="95.00" x2="962" y2="95.00" class="grid"/>
<text x="74" y="99.00" text-anchor="end" class="tick">38.02</text>
<line x1="82" y1="44.00" x2="962" y2="44.00" class="grid"/>
<text x="74" y="48.00" text-anchor="end" class="tick">51.98</text>
<line x1="82" y1="248" x2="962" y2="248" class="axis"/>
<line x1="82" y1="44" x2="82" y2="248" class="axis"/>
<text x="500.0" y="280.0" text-anchor="middle" class="label">Nut stroke s (mm)</text>
<text x="34.0" y="150.0" transform="rotate(-90 34.0,150.0)" text-anchor="middle" class="label">phi (deg)</text>
<polyline points="82.00,233.93 82.88,233.84 83.76,233.74 84.64,233.65 85.52,233.56 86.40,233.46 87.28,233.37 88.16,233.28 89.04,233.18 89.92,233.09 90.80,232.99 91.68,232.90 92.56,232.81 93.44,232.71 94.32,232.62 95.20,232.52 96.08,232.43 96.96,232.34 97.84,232.24 98.72,232.15 99.60,232.05 100.48,231.96 101.36,231.86 102.24,231.77 103.12,231.67 104.00,231.58 104.88,231.48 105.76,231.39 106.64,231.29 107.52,231.20 108.40,231.10 109.28,231.01 110.16,230.91 111.04,230.82 111.92,230.72 112.80,230.63 113.68,230.53 114.56,230.44 115.44,230.34 116.32,230.25 117.20,230.15 118.08,230.06 118.96,229.96 119.84,229.86 120.72,229.77 121.60,229.67 122.48,229.58 123.36,229.48 124.24,229.38 125.12,229.29 126.00,229.19 126.88,229.10 127.76,229.00 128.64,228.90 129.52,228.81 130.40,228.71 131.28,228.61 132.16,228.52 133.04,228.42 133.92,228.32 134.80,228.23 135.68,228.13 136.56,228.03 137.44,227.94 138.32,227.84 139.20,227.74 140.08,227.65 140.96,227.55 141.84,227.45 142.72,227.35 143.60,227.26 144.48,227.16 145.36,227.06 146.24,226.97 147.12,226.87 148.00,226.77 148.88,226.67 149.76,226.57 150.64,226.48 151.52,226.38 152.40,226.28 153.28,226.18 154.16,226.09 155.04,225.99 155.92,225.89 156.80,225.79 157.68,225.69 158.56,225.59 159.44,225.50 160.32,225.40 161.20,225.30 162.08,225.20 162.96,225.10 163.84,225.00 164.72,224.90 165.60,224.81 166.48,224.71 167.36,224.61 168.24,224.51 169.12,224.41 170.00,224.31 170.88,224.21 171.76,224.11 172.64,224.01 173.52,223.91 174.40,223.81 175.28,223.71 176.16,223.61 177.04,223.51 177.92,223.41 178.80,223.31 179.68,223.21 180.56,223.11 181.44,223.01 182.32,222.91 183.20,222.81 184.08,222.71 184.96,222.61 185.84,222.51 186.72,222.41 187.60,222.31 188.48,222.21 189.36,222.11 190.24,222.01 191.12,221.91 192.00,221.81 192.88,221.71 193.76,221.61 194.64,221.51 195.52,221.41 196.40,221.30 197.28,221.20 198.16,221.10 199.04,221.00 199.92,220.90 200.80,220.80 201.68,220.70 202.56,220.59 203.44,220.49 204.32,220.39 205.20,220.29 206.08,220.19 206.96,220.09 207.84,219.98 208.72,219.88 209.60,219.78 210.48,219.68 211.36,219.57 212.24,219.47 213.12,219.37 214.00,219.27 214.88,219.16 215.76,219.06 216.64,218.96 217.52,218.86 218.40,218.75 219.28,218.65 220.16,218.55 221.04,218.44 221.92,218.34 222.80,218.24 223.68,218.13 224.56,218.03 225.44,217.93 226.32,217.82 227.20,217.72 228.08,217.62 228.96,217.51 229.84,217.41 230.72,217.30 231.60,217.20 232.48,217.10 233.36,216.99 234.24,216.89 235.12,216.78 236.00,216.68 236.88,216.57 237.76,216.47 238.64,216.37 239.52,216.26 240.40,216.16 241.28,216.05 242.16,215.95 243.04,215.84 243.92,215.74 244.80,215.63 245.68,215.53 246.56,215.42 247.44,215.31 248.32,215.21 249.20,215.10 250.08,215.00 250.96,214.89 251.84,214.79 252.72,214.68 253.60,214.58 254.48,214.47 255.36,214.36 256.24,214.26 257.12,214.15 258.00,214.04 258.88,213.94 259.76,213.83 260.64,213.72 261.52,213.62 262.40,213.51 263.28,213.40 264.16,213.30 265.04,213.19 265.92,213.08 266.80,212.98 267.68,212.87 268.56,212.76 269.44,212.65 270.32,212.55 271.20,212.44 272.08,212.33 272.96,212.22 273.84,212.12 274.72,212.01 275.60,211.90 276.48,211.79 277.36,211.68 278.24,211.58 279.12,211.47 280.00,211.36 280.88,211.25 281.76,211.14 282.64,211.03 283.52,210.92 284.40,210.82 285.28,210.71 286.16,210.60 287.04,210.49 287.92,210.38 288.80,210.27 289.68,210.16 290.56,210.05 291.44,209.94 292.32,209.83 293.20,209.72 294.08,209.61 294.96,209.50 295.84,209.39 296.72,209.28 297.60,209.17 298.48,209.06 299.36,208.95 300.24,208.84 301.12,208.73 302.00,208.62 302.88,208.51 303.76,208.40 304.64,208.29 305.52,208.18 306.40,208.07 307.28,207.95 308.16,207.84 309.04,207.73 309.92,207.62 310.80,207.51 311.68,207.40 312.56,207.29 313.44,207.17 314.32,207.06 315.20,206.95 316.08,206.84 316.96,206.73 317.84,206.61 318.72,206.50 319.60,206.39 320.48,206.28 321.36,206.16 322.24,206.05 323.12,205.94 324.00,205.83 324.88,205.71 325.76,205.60 326.64,205.49 327.52,205.37 328.40,205.26 329.28,205.15 330.16,205.03 331.04,204.92 331.92,204.80 332.80,204.69 333.68,204.58 334.56,204.46 335.44,204.35 336.32,204.23 337.20,204.12 338.08,204.01 338.96,203.89 339.84,203.78 340.72,203.66 341.60,203.55 342.48,203.43 343.36,203.32 344.24,203.20 345.12,203.09 346.00,202.97 346.88,202.85 347.76,202.74 348.64,202.62 349.52,202.51 350.40,202.39 351.28,202.28 352.16,202.16 353.04,202.04 353.92,201.93 354.80,201.81 355.68,201.69 356.56,201.58 357.44,201.46 358.32,201.34 359.20,201.23 360.08,201.11 360.96,200.99 361.84,200.88 362.72,200.76 363.60,200.64 364.48,200.52 365.36,200.40 366.24,200.29 367.12,200.17 368.00,200.05 368.88,199.93 369.76,199.81 370.64,199.70 371.52,199.58 372.40,199.46 373.28,199.34 374.16,199.22 375.04,199.10 375.92,198.98 376.80,198.86 377.68,198.75 378.56,198.63 379.44,198.51 380.32,198.39 381.20,198.27 382.08,198.15 382.96,198.03 383.84,197.91 384.72,197.79 385.60,197.67 386.48,197.55 387.36,197.43 388.24,197.31 389.12,197.18 390.00,197.06 390.88,196.94 391.76,196.82 392.64,196.70 393.52,196.58 394.40,196.46 395.28,196.34 396.16,196.21 397.04,196.09 397.92,195.97 398.80,195.85 399.68,195.73 400.56,195.60 401.44,195.48 402.32,195.36 403.20,195.24 404.08,195.11 404.96,194.99 405.84,194.87 406.72,194.75 407.60,194.62 408.48,194.50 409.36,194.38 410.24,194.25 411.12,194.13 412.00,194.00 412.88,193.88 413.76,193.76 414.64,193.63 415.52,193.51 416.40,193.38 417.28,193.26 418.16,193.13 419.04,193.01 419.92,192.88 420.80,192.76 421.68,192.63 422.56,192.51 423.44,192.38 424.32,192.26 425.20,192.13 426.08,192.01 426.96,191.88 427.84,191.75 428.72,191.63 429.60,191.50 430.48,191.37 431.36,191.25 432.24,191.12 433.12,190.99 434.00,190.87 434.88,190.74 435.76,190.61 436.64,190.49 437.52,190.36 438.40,190.23 439.28,190.10 440.16,189.97 441.04,189.85 441.92,189.72 442.80,189.59 443.68,189.46 444.56,189.33 445.44,189.20 446.32,189.07 447.20,188.95 448.08,188.82 448.96,188.69 449.84,188.56 450.72,188.43 451.60,188.30 452.48,188.17 453.36,188.04 454.24,187.91 455.12,187.78 456.00,187.65 456.88,187.52 457.76,187.39 458.64,187.25 459.52,187.12 460.40,186.99 461.28,186.86 462.16,186.73 463.04,186.60 463.92,186.47 464.80,186.33 465.68,186.20 466.56,186.07 467.44,185.94 468.32,185.80 469.20,185.67 470.08,185.54 470.96,185.41 471.84,185.27 472.72,185.14 473.60,185.01 474.48,184.87 475.36,184.74 476.24,184.61 477.12,184.47 478.00,184.34 478.88,184.20 479.76,184.07 480.64,183.93 481.52,183.80 482.40,183.66 483.28,183.53 484.16,183.39 485.04,183.26 485.92,183.12 486.80,182.99 487.68,182.85 488.56,182.72 489.44,182.58 490.32,182.44 491.20,182.31 492.08,182.17 492.96,182.03 493.84,181.90 494.72,181.76 495.60,181.62 496.48,181.48 497.36,181.35 498.24,181.21 499.12,181.07 500.00,180.93 500.88,180.79 501.76,180.66 502.64,180.52 503.52,180.38 504.40,180.24 505.28,180.10 506.16,179.96 507.04,179.82 507.92,179.68 508.80,179.54 509.68,179.40 510.56,179.26 511.44,179.12 512.32,178.98 513.20,178.84 514.08,178.70 514.96,178.56 515.84,178.42 516.72,178.28 517.60,178.14 518.48,177.99 519.36,177.85 520.24,177.71 521.12,177.57 522.00,177.43 522.88,177.28 523.76,177.14 524.64,177.00 525.52,176.85 526.40,176.71 527.28,176.57 528.16,176.42 529.04,176.28 529.92,176.14 530.80,175.99 531.68,175.85 532.56,175.70 533.44,175.56 534.32,175.41 535.20,175.27 536.08,175.12 536.96,174.98 537.84,174.83 538.72,174.69 539.60,174.54 540.48,174.39 541.36,174.25 542.24,174.10 543.12,173.95 544.00,173.81 544.88,173.66 545.76,173.51 546.64,173.36 547.52,173.22 548.40,173.07 549.28,172.92 550.16,172.77 551.04,172.62 551.92,172.48 552.80,172.33 553.68,172.18 554.56,172.03 555.44,171.88 556.32,171.73 557.20,171.58 558.08,171.43 558.96,171.28 559.84,171.13 560.72,170.98 561.60,170.83 562.48,170.68 563.36,170.52 564.24,170.37 565.12,170.22 566.00,170.07 566.88,169.92 567.76,169.76 568.64,169.61 569.52,169.46 570.40,169.31 571.28,169.15 572.16,169.00 573.04,168.85 573.92,168.69 574.80,168.54 575.68,168.38 576.56,168.23 577.44,168.07 578.32,167.92 579.20,167.76 580.08,167.61 580.96,167.45 581.84,167.30 582.72,167.14 583.60,166.99 584.48,166.83 585.36,166.67 586.24,166.52 587.12,166.36 588.00,166.20 588.88,166.04 589.76,165.89 590.64,165.73 591.52,165.57 592.40,165.41 593.28,165.25 594.16,165.09 595.04,164.93 595.92,164.78 596.80,164.62 597.68,164.46 598.56,164.30 599.44,164.14 600.32,163.98 601.20,163.81 602.08,163.65 602.96,163.49 603.84,163.33 604.72,163.17 605.60,163.01 606.48,162.84 607.36,162.68 608.24,162.52 609.12,162.36 610.00,162.19 610.88,162.03 611.76,161.87 612.64,161.70 613.52,161.54 614.40,161.37 615.28,161.21 616.16,161.04 617.04,160.88 617.92,160.71 618.80,160.55 619.68,160.38 620.56,160.22 621.44,160.05 622.32,159.88 623.20,159.72 624.08,159.55 624.96,159.38 625.84,159.21 626.72,159.05 627.60,158.88 628.48,158.71 629.36,158.54 630.24,158.37 631.12,158.20 632.00,158.03 632.88,157.86 633.76,157.69 634.64,157.52 635.52,157.35 636.40,157.18 637.28,157.01 638.16,156.84 639.04,156.67 639.92,156.49 640.80,156.32 641.68,156.15 642.56,155.98 643.44,155.80 644.32,155.63 645.20,155.46 646.08,155.28 646.96,155.11 647.84,154.93 648.72,154.76 649.60,154.58 650.48,154.41 651.36,154.23 652.24,154.06 653.12,153.88 654.00,153.70 654.88,153.53 655.76,153.35 656.64,153.17 657.52,152.99 658.40,152.82 659.28,152.64 660.16,152.46 661.04,152.28 661.92,152.10 662.80,151.92 663.68,151.74 664.56,151.56 665.44,151.38 666.32,151.20 667.20,151.02 668.08,150.84 668.96,150.66 669.84,150.48 670.72,150.29 671.60,150.11 672.48,149.93 673.36,149.74 674.24,149.56 675.12,149.38 676.00,149.19 676.88,149.01 677.76,148.82 678.64,148.64 679.52,148.45 680.40,148.27 681.28,148.08 682.16,147.89 683.04,147.71 683.92,147.52 684.80,147.33 685.68,147.14 686.56,146.96 687.44,146.77 688.32,146.58 689.20,146.39 690.08,146.20 690.96,146.01 691.84,145.82 692.72,145.63 693.60,145.44 694.48,145.25 695.36,145.06 696.24,144.86 697.12,144.67 698.00,144.48 698.88,144.29 699.76,144.09 700.64,143.90 701.52,143.70 702.40,143.51 703.28,143.32 704.16,143.12 705.04,142.92 705.92,142.73 706.80,142.53 707.68,142.34 708.56,142.14 709.44,141.94 710.32,141.74 711.20,141.55 712.08,141.35 712.96,141.15 713.84,140.95 714.72,140.75 715.60,140.55 716.48,140.35 717.36,140.15 718.24,139.95 719.12,139.74 720.00,139.54 720.88,139.34 721.76,139.14 722.64,138.93 723.52,138.73 724.40,138.53 725.28,138.32 726.16,138.12 727.04,137.91 727.92,137.71 728.80,137.50 729.68,137.29 730.56,137.09 731.44,136.88 732.32,136.67 733.20,136.46 734.08,136.25 734.96,136.05 735.84,135.84 736.72,135.63 737.60,135.42 738.48,135.21 739.36,134.99 740.24,134.78 741.12,134.57 742.00,134.36 742.88,134.15 743.76,133.93 744.64,133.72 745.52,133.50 746.40,133.29 747.28,133.07 748.16,132.86 749.04,132.64 749.92,132.43 750.80,132.21 751.68,131.99 752.56,131.77 753.44,131.56 754.32,131.34 755.20,131.12 756.08,130.90 756.96,130.68 757.84,130.46 758.72,130.24 759.60,130.01 760.48,129.79 761.36,129.57 762.24,129.35 763.12,129.12 764.00,128.90 764.88,128.67 765.76,128.45 766.64,128.22 767.52,128.00 768.40,127.77 769.28,127.54 770.16,127.31 771.04,127.09 771.92,126.86 772.80,126.63 773.68,126.40 774.56,126.17 775.44,125.94 776.32,125.71 777.20,125.48 778.08,125.24 778.96,125.01 779.84,124.78 780.72,124.54 781.60,124.31 782.48,124.07 783.36,123.84 784.24,123.60 785.12,123.36 786.00,123.13 786.88,122.89 787.76,122.65 788.64,122.41 789.52,122.17 790.40,121.93 791.28,121.69 792.16,121.45 793.04,121.21 793.92,120.97 794.80,120.72 795.68,120.48 796.56,120.24 797.44,119.99 798.32,119.75 799.20,119.50 800.08,119.25 800.96,119.01 801.84,118.76 802.72,118.51 803.60,118.26 804.48,118.01 805.36,117.76 806.24,117.51 807.12,117.26 808.00,117.01 808.88,116.75 809.76,116.50 810.64,116.25 811.52,115.99 812.40,115.73 813.28,115.48 814.16,115.22 815.04,114.96 815.92,114.71 816.80,114.45 817.68,114.19 818.56,113.93 819.44,113.67 820.32,113.41 821.20,113.14 822.08,112.88 822.96,112.62 823.84,112.35 824.72,112.09 825.60,111.82 826.48,111.56 827.36,111.29 828.24,111.02 829.12,110.75 830.00,110.48 830.88,110.21 831.76,109.94 832.64,109.67 833.52,109.40 834.40,109.13 835.28,108.85 836.16,108.58 837.04,108.30 837.92,108.03 838.80,107.75 839.68,107.47 840.56,107.19 841.44,106.91 842.32,106.64 843.20,106.35 844.08,106.07 844.96,105.79 845.84,105.51 846.72,105.22 847.60,104.94 848.48,104.65 849.36,104.37 850.24,104.08 851.12,103.79 852.00,103.50 852.88,103.21 853.76,102.92 854.64,102.63 855.52,102.34 856.40,102.04 857.28,101.75 858.16,101.45 859.04,101.16 859.92,100.86 860.80,100.56 861.68,100.26 862.56,99.97 863.44,99.66 864.32,99.36 865.20,99.06 866.08,98.76 866.96,98.45 867.84,98.15 868.72,97.84 869.60,97.53 870.48,97.23 871.36,96.92 872.24,96.61 873.12,96.30 874.00,95.98 874.88,95.67 875.76,95.36 876.64,95.04 877.52,94.73 878.40,94.41 879.28,94.09 880.16,93.77 881.04,93.45 881.92,93.13 882.80,92.81 883.68,92.48 884.56,92.16 885.44,91.83 886.32,91.50 887.20,91.18 888.08,90.85 888.96,90.52 889.84,90.19 890.72,89.85 891.60,89.52 892.48,89.18 893.36,88.85 894.24,88.51 895.12,88.17 896.00,87.83 896.88,87.49 897.76,87.15 898.64,86.81 899.52,86.46 900.40,86.12 901.28,85.77 902.16,85.42 903.04,85.07 903.92,84.72 904.80,84.37 905.68,84.02 906.56,83.66 907.44,83.30 908.32,82.95 909.20,82.59 910.08,82.23 910.96,81.87 911.84,81.50 912.72,81.14 913.60,80.77 914.48,80.41 915.36,80.04 916.24,79.67 917.12,79.30 918.00,78.92 918.88,78.55 919.76,78.17 920.64,77.80 921.52,77.42 922.40,77.04 923.28,76.65 924.16,76.27 925.04,75.89 925.92,75.50 926.80,75.11 927.68,74.72 928.56,74.33 929.44,73.94 930.32,73.54 931.20,73.15 932.08,72.75 932.96,72.35 933.84,71.95 934.72,71.54 935.60,71.14 936.48,70.73 937.36,70.32 938.24,69.91 939.12,69.50 940.00,69.08 940.88,68.67 941.76,68.25 942.64,67.83 943.52,67.41 944.40,66.98 945.28,66.56 946.16,66.13 947.04,65.70 947.92,65.27 948.80,64.84 949.68,64.40 950.56,63.96 951.44,63.52 952.32,63.08 953.20,62.64 954.08,62.19 954.96,61.74 955.84,61.29 956.72,60.84 957.60,60.38 958.48,59.92 959.36,59.46 960.24,59.00 961.12,58.54 962.00,58.07" fill="none" stroke="#1f77b4" stroke-width="2.2"/>
<line x1="775" y1="36" x2="799" y2="36" stroke="#1f77b4" stroke-width="2.2"/>
<text x="805" y="40" class="legend">phi (deg)</text>
<rect x="20" y="308" width="960" height="280" fill="#ffffff" stroke="#d0d0d0"/>
<text x="500.0" y="330.0" text-anchor="middle" class="title">Jaw angular velocity - nut velocity</text>
<line x1="82.00" y1="342" x2="82.00" y2="546" class="grid"/>
<text x="82.00" y="564" text-anchor="middle" class="tick">0</text>
<line x1="302.00" y1="342" x2="302.00" y2="546" class="grid"/>
<text x="302.00" y="564" text-anchor="middle" class="tick">4</text>
<line x1="522.00" y1="342" x2="522.00" y2="546" class="grid"/>
<text x="522.00" y="564" text-anchor="middle" class="tick">8</text>
<line x1="742.00" y1="342" x2="742.00" y2="546" class="grid"/>
<text x="742.00" y="564" text-anchor="middle" class="tick">12</text>
<line x1="962.00" y1="342" x2="962.00" y2="546" class="grid"/>
<text x="962.00" y="564" text-anchor="middle" class="tick">16</text>
<line x1="82" y1="546.00" x2="962" y2="546.00" class="grid"/>
<text x="74" y="550.00" text-anchor="end" class="tick">1.09</text>
<line x1="82" y1="495.00" x2="962" y2="495.00" class="grid"/>
<text x="74" y="499.00" text-anchor="end" class="tick">2.94</text>
<line x1="82" y1="444.00" x2="962" y2="444.00" class="grid"/>
<text x="74" y="448.00" text-anchor="end" class="tick">4.79</text>
<line x1="82" y1="393.00" x2="962" y2="393.00" class="grid"/>
<text x="74" y="397.00" text-anchor="end" class="tick">6.65</text>
<line x1="82" y1="342.00" x2="962" y2="342.00" class="grid"/>
<text x="74" y="346.00" text-anchor="end" class="tick">8.50</text>
<line x1="82" y1="546" x2="962" y2="546" class="axis"/>
<line x1="82" y1="342" x2="82" y2="546" class="axis"/>
<text x="500.0" y="578.0" text-anchor="middle" class="label">Nut stroke s (mm)</text>
<text x="34.0" y="448.0" transform="rotate(-90 34.0,448.0)" text-anchor="middle" class="label">dphi/ds (deg/mm)</text>
<polyline points="82.00,531.93 82.88,531.92 83.76,531.89 84.64,531.87 85.52,531.85 86.40,531.82 87.28,531.80 88.16,531.77 89.04,531.75 89.92,531.72 90.80,531.70 91.68,531.67 92.56,531.65 93.44,531.62 94.32,531.60 95.20,531.57 96.08,531.55 96.96,531.52 97.84,531.50 98.72,531.47 99.60,531.45 100.48,531.42 101.36,531.39 102.24,531.37 103.12,531.34 104.00,531.32 104.88,531.29 105.76,531.27 106.64,531.24 107.52,531.21 108.40,531.19 109.28,531.16 110.16,531.14 111.04,531.11 111.92,531.08 112.80,531.06 113.68,531.03 114.56,531.01 115.44,530.98 116.32,530.95 117.20,530.93 118.08,530.90 118.96,530.87 119.84,530.85 120.72,530.82 121.60,530.79 122.48,530.77 123.36,530.74 124.24,530.71 125.12,530.69 126.00,530.66 126.88,530.63 127.76,530.60 128.64,530.58 129.52,530.55 130.40,530.52 131.28,530.49 132.16,530.47 133.04,530.44 133.92,530.41 134.80,530.38 135.68,530.36 136.56,530.33 137.44,530.30 138.32,530.27 139.20,530.25 140.08,530.22 140.96,530.19 141.84,530.16 142.72,530.13 143.60,530.10 144.48,530.08 145.36,530.05 146.24,530.02 147.12,529.99 148.00,529.96 148.88,529.93 149.76,529.91 150.64,529.88 151.52,529.85 152.40,529.82 153.28,529.79 154.16,529.76 155.04,529.73 155.92,529.70 156.80,529.67 157.68,529.64 158.56,529.62 159.44,529.59 160.32,529.56 161.20,529.53 162.08,529.50 162.96,529.47 163.84,529.44 164.72,529.41 165.60,529.38 166.48,529.35 167.36,529.32 168.24,529.29 169.12,529.26 170.00,529.23 170.88,529.20 171.76,529.17 172.64,529.14 173.52,529.11 174.40,529.08 175.28,529.05 176.16,529.02 177.04,528.98 177.92,528.95 178.80,528.92 179.68,528.89 180.56,528.86 181.44,528.83 182.32,528.80 183.20,528.77 184.08,528.74 184.96,528.71 185.84,528.67 186.72,528.64 187.60,528.61 188.48,528.58 189.36,528.55 190.24,528.52 191.12,528.48 192.00,528.45 192.88,528.42 193.76,528.39 194.64,528.36 195.52,528.32 196.40,528.29 197.28,528.26 198.16,528.23 199.04,528.20 199.92,528.16 200.80,528.13 201.68,528.10 202.56,528.06 203.44,528.03 204.32,528.00 205.20,527.97 206.08,527.93 206.96,527.90 207.84,527.87 208.72,527.83 209.60,527.80 210.48,527.77 211.36,527.73 212.24,527.70 213.12,527.67 214.00,527.63 214.88,527.60 215.76,527.57 216.64,527.53 217.52,527.50 218.40,527.46 219.28,527.43 220.16,527.39 221.04,527.36 221.92,527.33 222.80,527.29 223.68,527.26 224.56,527.22 225.44,527.19 226.32,527.15 227.20,527.12 228.08,527.08 228.96,527.05 229.84,527.01 230.72,526.98 231.60,526.94 232.48,526.91 233.36,526.87 234.24,526.84 235.12,526.80 236.00,526.77 236.88,526.73 237.76,526.69 238.64,526.66 239.52,526.62 240.40,526.59 241.28,526.55 242.16,526.51 243.04,526.48 243.92,526.44 244.80,526.40 245.68,526.37 246.56,526.33 247.44,526.29 248.32,526.26 249.20,526.22 250.08,526.18 250.96,526.15 251.84,526.11 252.72,526.07 253.60,526.04 254.48,526.00 255.36,525.96 256.24,525.92 257.12,525.88 258.00,525.85 258.88,525.81 259.76,525.77 260.64,525.73 261.52,525.70 262.40,525.66 263.28,525.62 264.16,525.58 265.04,525.54 265.92,525.50 266.80,525.46 267.68,525.43 268.56,525.39 269.44,525.35 270.32,525.31 271.20,525.27 272.08,525.23 272.96,525.19 273.84,525.15 274.72,525.11 275.60,525.07 276.48,525.03 277.36,524.99 278.24,524.95 279.12,524.91 280.00,524.87 280.88,524.83 281.76,524.79 282.64,524.75 283.52,524.71 284.40,524.67 285.28,524.63 286.16,524.59 287.04,524.55 287.92,524.51 288.80,524.47 289.68,524.43 290.56,524.39 291.44,524.34 292.32,524.30 293.20,524.26 294.08,524.22 294.96,524.18 295.84,524.14 296.72,524.09 297.60,524.05 298.48,524.01 299.36,523.97 300.24,523.93 301.12,523.88 302.00,523.84 302.88,523.80 303.76,523.76 304.64,523.71 305.52,523.67 306.40,523.63 307.28,523.58 308.16,523.54 309.04,523.50 309.92,523.45 310.80,523.41 311.68,523.37 312.56,523.32 313.44,523.28 314.32,523.24 315.20,523.19 316.08,523.15 316.96,523.10 317.84,523.06 318.72,523.01 319.60,522.97 320.48,522.92 321.36,522.88 322.24,522.83 323.12,522.79 324.00,522.74 324.88,522.70 325.76,522.65 326.64,522.61 327.52,522.56 328.40,522.52 329.28,522.47 330.16,522.43 331.04,522.38 331.92,522.33 332.80,522.29 333.68,522.24 334.56,522.19 335.44,522.15 336.32,522.10 337.20,522.05 338.08,522.01 338.96,521.96 339.84,521.91 340.72,521.87 341.60,521.82 342.48,521.77 343.36,521.72 344.24,521.67 345.12,521.63 346.00,521.58 346.88,521.53 347.76,521.48 348.64,521.43 349.52,521.39 350.40,521.34 351.28,521.29 352.16,521.24 353.04,521.19 353.92,521.14 354.80,521.09 355.68,521.04 356.56,520.99 357.44,520.94 358.32,520.89 359.20,520.84 360.08,520.79 360.96,520.74 361.84,520.69 362.72,520.64 363.60,520.59 364.48,520.54 365.36,520.49 366.24,520.44 367.12,520.39 368.00,520.34 368.88,520.29 369.76,520.23 370.64,520.18 371.52,520.13 372.40,520.08 373.28,520.03 374.16,519.98 375.04,519.92 375.92,519.87 376.80,519.82 377.68,519.77 378.56,519.71 379.44,519.66 380.32,519.61 381.20,519.55 382.08,519.50 382.96,519.45 383.84,519.39 384.72,519.34 385.60,519.29 386.48,519.23 387.36,519.18 388.24,519.12 389.12,519.07 390.00,519.01 390.88,518.96 391.76,518.90 392.64,518.85 393.52,518.79 394.40,518.74 395.28,518.68 396.16,518.63 397.04,518.57 397.92,518.52 398.80,518.46 399.68,518.40 400.56,518.35 401.44,518.29 402.32,518.23 403.20,518.18 404.08,518.12 404.96,518.06 405.84,518.01 406.72,517.95 407.60,517.89 408.48,517.83 409.36,517.78 410.24,517.72 411.12,517.66 412.00,517.60 412.88,517.54 413.76,517.48 414.64,517.43 415.52,517.37 416.40,517.31 417.28,517.25 418.16,517.19 419.04,517.13 419.92,517.07 420.80,517.01 421.68,516.95 422.56,516.89 423.44,516.83 424.32,516.77 425.20,516.71 426.08,516.65 426.96,516.59 427.84,516.53 428.72,516.46 429.60,516.40 430.48,516.34 431.36,516.28 432.24,516.22 433.12,516.15 434.00,516.09 434.88,516.03 435.76,515.97 436.64,515.90 437.52,515.84 438.40,515.78 439.28,515.71 440.16,515.65 441.04,515.59 441.92,515.52 442.80,515.46 443.68,515.39 444.56,515.33 445.44,515.27 446.32,515.20 447.20,515.14 448.08,515.07 448.96,515.01 449.84,514.94 450.72,514.87 451.60,514.81 452.48,514.74 453.36,514.68 454.24,514.61 455.12,514.54 456.00,514.48 456.88,514.41 457.76,514.34 458.64,514.27 459.52,514.21 460.40,514.14 461.28,514.07 462.16,514.00 463.04,513.93 463.92,513.87 464.80,513.80 465.68,513.73 466.56,513.66 467.44,513.59 468.32,513.52 469.20,513.45 470.08,513.38 470.96,513.31 471.84,513.24 472.72,513.17 473.60,513.10 474.48,513.03 475.36,512.96 476.24,512.89 477.12,512.81 478.00,512.74 478.88,512.67 479.76,512.60 480.64,512.53 481.52,512.45 482.40,512.38 483.28,512.31 484.16,512.23 485.04,512.16 485.92,512.09 486.80,512.01 487.68,511.94 488.56,511.86 489.44,511.79 490.32,511.72 491.20,511.64 492.08,511.56 492.96,511.49 493.84,511.41 494.72,511.34 495.60,511.26 496.48,511.19 497.36,511.11 498.24,511.03 499.12,510.96 500.00,510.88 500.88,510.80 501.76,510.72 502.64,510.65 503.52,510.57 504.40,510.49 505.28,510.41 506.16,510.33 507.04,510.25 507.92,510.17 508.80,510.09 509.68,510.01 510.56,509.93 511.44,509.85 512.32,509.77 513.20,509.69 514.08,509.61 514.96,509.53 515.84,509.45 516.72,509.37 517.60,509.29 518.48,509.20 519.36,509.12 520.24,509.04 521.12,508.96 522.00,508.87 522.88,508.79 523.76,508.71 524.64,508.62 525.52,508.54 526.40,508.45 527.28,508.37 528.16,508.28 529.04,508.20 529.92,508.11 530.80,508.03 531.68,507.94 532.56,507.85 533.44,507.77 534.32,507.68 535.20,507.59 536.08,507.51 536.96,507.42 537.84,507.33 538.72,507.24 539.60,507.15 540.48,507.07 541.36,506.98 542.24,506.89 543.12,506.80 544.00,506.71 544.88,506.62 545.76,506.53 546.64,506.44 547.52,506.35 548.40,506.25 549.28,506.16 550.16,506.07 551.04,505.98 551.92,505.89 552.80,505.79 553.68,505.70 554.56,505.61 555.44,505.51 556.32,505.42 557.20,505.33 558.08,505.23 558.96,505.14 559.84,505.04 560.72,504.95 561.60,504.85 562.48,504.75 563.36,504.66 564.24,504.56 565.12,504.46 566.00,504.37 566.88,504.27 567.76,504.17 568.64,504.07 569.52,503.97 570.40,503.88 571.28,503.78 572.16,503.68 573.04,503.58 573.92,503.48 574.80,503.38 575.68,503.28 576.56,503.17 577.44,503.07 578.32,502.97 579.20,502.87 580.08,502.77 580.96,502.66 581.84,502.56 582.72,502.46 583.60,502.35 584.48,502.25 585.36,502.14 586.24,502.04 587.12,501.93 588.00,501.83 588.88,501.72 589.76,501.62 590.64,501.51 591.52,501.40 592.40,501.29 593.28,501.19 594.16,501.08 595.04,500.97 595.92,500.86 596.80,500.75 597.68,500.64 598.56,500.53 599.44,500.42 600.32,500.31 601.20,500.20 602.08,500.09 602.96,499.98 603.84,499.86 604.72,499.75 605.60,499.64 606.48,499.53 607.36,499.41 608.24,499.30 609.12,499.18 610.00,499.07 610.88,498.95 611.76,498.84 612.64,498.72 613.52,498.60 614.40,498.49 615.28,498.37 616.16,498.25 617.04,498.13 617.92,498.01 618.80,497.90 619.68,497.78 620.56,497.66 621.44,497.54 622.32,497.41 623.20,497.29 624.08,497.17 624.96,497.05 625.84,496.93 626.72,496.80 627.60,496.68 628.48,496.56 629.36,496.43 630.24,496.31 631.12,496.18 632.00,496.06 632.88,495.93 633.76,495.81 634.64,495.68 635.52,495.55 636.40,495.42 637.28,495.29 638.16,495.17 639.04,495.04 639.92,494.91 640.80,494.78 641.68,494.65 642.56,494.51 643.44,494.38 644.32,494.25 645.20,494.12 646.08,493.99 646.96,493.85 647.84,493.72 648.72,493.58 649.60,493.45 650.48,493.31 651.36,493.18 652.24,493.04 653.12,492.90 654.00,492.76 654.88,492.63 655.76,492.49 656.64,492.35 657.52,492.21 658.40,492.07 659.28,491.93 660.16,491.79 661.04,491.64 661.92,491.50 662.80,491.36 663.68,491.22 664.56,491.07 665.44,490.93 666.32,490.78 667.20,490.64 668.08,490.49 668.96,490.34 669.84,490.20 670.72,490.05 671.60,489.90 672.48,489.75 673.36,489.60 674.24,489.45 675.12,489.30 676.00,489.15 676.88,489.00 677.76,488.84 678.64,488.69 679.52,488.54 680.40,488.38 681.28,488.23 682.16,488.07 683.04,487.91 683.92,487.76 684.80,487.60 685.68,487.44 686.56,487.28 687.44,487.12 688.32,486.96 689.20,486.80 690.08,486.64 690.96,486.48 691.84,486.32 692.72,486.15 693.60,485.99 694.48,485.83 695.36,485.66 696.24,485.49 697.12,485.33 698.00,485.16 698.88,484.99 699.76,484.82 700.64,484.65 701.52,484.48 702.40,484.31 703.28,484.14 704.16,483.97 705.04,483.80 705.92,483.62 706.80,483.45 707.68,483.27 708.56,483.10 709.44,482.92 710.32,482.74 711.20,482.57 712.08,482.39 712.96,482.21 713.84,482.03 714.72,481.85 715.60,481.67 716.48,481.48 717.36,481.30 718.24,481.12 719.12,480.93 720.00,480.74 720.88,480.56 721.76,480.37 722.64,480.18 723.52,479.99 724.40,479.80 725.28,479.61 726.16,479.42 727.04,479.23 727.92,479.04 728.80,478.84 729.68,478.65 730.56,478.45 731.44,478.26 732.32,478.06 733.20,477.86 734.08,477.66 734.96,477.46 735.84,477.26 736.72,477.06 737.60,476.86 738.48,476.65 739.36,476.45 740.24,476.24 741.12,476.04 742.00,475.83 742.88,475.62 743.76,475.41 744.64,475.20 745.52,474.99 746.40,474.78 747.28,474.57 748.16,474.35 749.04,474.14 749.92,473.92 750.80,473.70 751.68,473.49 752.56,473.27 753.44,473.05 754.32,472.83 755.20,472.60 756.08,472.38 756.96,472.16 757.84,471.93 758.72,471.71 759.60,471.48 760.48,471.25 761.36,471.02 762.24,470.79 763.12,470.56 764.00,470.33 764.88,470.09 765.76,469.86 766.64,469.62 767.52,469.38 768.40,469.15 769.28,468.91 770.16,468.67 771.04,468.42 771.92,468.18 772.80,467.94 773.68,467.69 774.56,467.45 775.44,467.20 776.32,466.95 777.20,466.70 778.08,466.45 778.96,466.19 779.84,465.94 780.72,465.69 781.60,465.43 782.48,465.17 783.36,464.91 784.24,464.65 785.12,464.39 786.00,464.13 786.88,463.86 787.76,463.60 788.64,463.33 789.52,463.06 790.40,462.79 791.28,462.52 792.16,462.25 793.04,461.97 793.92,461.70 794.80,461.42 795.68,461.14 796.56,460.86 797.44,460.58 798.32,460.30 799.20,460.02 800.08,459.73 800.96,459.44 801.84,459.15 802.72,458.86 803.60,458.57 804.48,458.28 805.36,457.98 806.24,457.69 807.12,457.39 808.00,457.09 808.88,456.79 809.76,456.49 810.64,456.18 811.52,455.87 812.40,455.57 813.28,455.26 814.16,454.95 815.04,454.63 815.92,454.32 816.80,454.00 817.68,453.68 818.56,453.36 819.44,453.04 820.32,452.72 821.20,452.39 822.08,452.06 822.96,451.73 823.84,451.40 824.72,451.07 825.60,450.74 826.48,450.40 827.36,450.06 828.24,449.72 829.12,449.38 830.00,449.03 830.88,448.68 831.76,448.34 832.64,447.99 833.52,447.63 834.40,447.28 835.28,446.92 836.16,446.56 837.04,446.20 837.92,445.84 838.80,445.47 839.68,445.10 840.56,444.73 841.44,444.36 842.32,443.99 843.20,443.61 844.08,443.23 844.96,442.85 845.84,442.46 846.72,442.08 847.60,441.69 848.48,441.30 849.36,440.90 850.24,440.51 851.12,440.11 852.00,439.71 852.88,439.31 853.76,438.90 854.64,438.49 855.52,438.08 856.40,437.67 857.28,437.25 858.16,436.83 859.04,436.41 859.92,435.98 860.80,435.56 861.68,435.13 862.56,434.69 863.44,434.26 864.32,433.82 865.20,433.38 866.08,432.93 866.96,432.48 867.84,432.03 868.72,431.58 869.60,431.12 870.48,430.66 871.36,430.20 872.24,429.73 873.12,429.26 874.00,428.79 874.88,428.32 875.76,427.84 876.64,427.35 877.52,426.87 878.40,426.38 879.28,425.89 880.16,425.39 881.04,424.89 881.92,424.39 882.80,423.88 883.68,423.37 884.56,422.85 885.44,422.34 886.32,421.81 887.20,421.29 888.08,420.76 888.96,420.22 889.84,419.69 890.72,419.15 891.60,418.60 892.48,418.05 893.36,417.50 894.24,416.94 895.12,416.38 896.00,415.81 896.88,415.24 897.76,414.66 898.64,414.08 899.52,413.50 900.40,412.91 901.28,412.32 902.16,411.72 903.04,411.12 903.92,410.51 904.80,409.90 905.68,409.28 906.56,408.66 907.44,408.03 908.32,407.40 909.20,406.76 910.08,406.12 910.96,405.47 911.84,404.81 912.72,404.15 913.60,403.49 914.48,402.82 915.36,402.14 916.24,401.46 917.12,400.77 918.00,400.08 918.88,399.38 919.76,398.68 920.64,397.96 921.52,397.25 922.40,396.52 923.28,395.79 924.16,395.05 925.04,394.31 925.92,393.56 926.80,392.80 927.68,392.04 928.56,391.27 929.44,390.49 930.32,389.70 931.20,388.91 932.08,388.11 932.96,387.30 933.84,386.49 934.72,385.66 935.60,384.83 936.48,383.99 937.36,383.14 938.24,382.29 939.12,381.42 940.00,380.55 940.88,379.67 941.76,378.78 942.64,377.88 943.52,376.97 944.40,376.06 945.28,375.13 946.16,374.19 947.04,373.25 947.92,372.29 948.80,371.32 949.68,370.35 950.56,369.36 951.44,368.36 952.32,367.35 953.20,366.34 954.08,365.31 954.96,364.26 955.84,363.21 956.72,362.15 957.60,361.07 958.48,359.98 959.36,358.88 960.24,357.76 961.12,356.64 962.00,356.07" fill="none" stroke="#1f77b4" stroke-width="2.2"/>
<line x1="775" y1="334" x2="799" y2="334" stroke="#1f77b4" stroke-width="2.2"/>
<text x="805" y="338" class="legend">dphi/ds (deg/mm)</text>
<polyline points="82.00,531.93 82.88,531.92 83.76,531.89 84.64,531.87 85.52,531.85 86.40,531.82 87.28,531.80 88.16,531.77 89.04,531.75 89.92,531.72 90.80,531.70 91.68,531.67 92.56,531.65 93.44,531.62 94.32,531.60 95.20,531.57 96.08,531.55 96.96,531.52 97.84,531.50 98.72,531.47 99.60,531.45 100.48,531.42 101.36,531.39 102.24,531.37 103.12,531.34 104.00,531.32 104.88,531.29 105.76,531.27 106.64,531.24 107.52,531.21 108.40,531.19 109.28,531.16 110.16,531.14 111.04,531.11 111.92,531.08 112.80,531.06 113.68,531.03 114.56,531.01 115.44,530.98 116.32,530.95 117.20,530.93 118.08,530.90 118.96,530.87 119.84,530.85 120.72,530.82 121.60,530.79 122.48,530.77 123.36,530.74 124.24,530.71 125.12,530.69 126.00,530.66 126.88,530.63 127.76,530.60 128.64,530.58 129.52,530.55 130.40,530.52 131.28,530.49 132.16,530.47 133.04,530.44 133.92,530.41 134.80,530.38 135.68,530.36 136.56,530.33 137.44,530.30 138.32,530.27 139.20,530.25 140.08,530.22 140.96,530.19 141.84,530.16 142.72,530.13 143.60,530.10 144.48,530.08 145.36,530.05 146.24,530.02 147.12,529.99 148.00,529.96 148.88,529.93 149.76,529.91 150.64,529.88 151.52,529.85 152.40,529.82 153.28,529.79 154.16,529.76 155.04,529.73 155.92,529.70 156.80,529.67 157.68,529.64 158.56,529.62 159.44,529.59 160.32,529.56 161.20,529.53 162.08,529.50 162.96,529.47 163.84,529.44 164.72,529.41 165.60,529.38 166.48,529.35 167.36,529.32 168.24,529.29 169.12,529.26 170.00,529.23 170.88,529.20 171.76,529.17 172.64,529.14 173.52,529.11 174.40,529.08 175.28,529.05 176.16,529.02 177.04,528.98 177.92,528.95 178.80,528.92 179.68,528.89 180.56,528.86 181.44,528.83 182.32,528.80 183.20,528.77 184.08,528.74 184.96,528.71 185.84,528.67 186.72,528.64 187.60,528.61 188.48,528.58 189.36,528.55 190.24,528.52 191.12,528.48 192.00,528.45 192.88,528.42 193.76,528.39 194.64,528.36 195.52,528.32 196.40,528.29 197.28,528.26 198.16,528.23 199.04,528.20 199.92,528.16 200.80,528.13 201.68,528.10 202.56,528.06 203.44,528.03 204.32,528.00 205.20,527.97 206.08,527.93 206.96,527.90 207.84,527.87 208.72,527.83 209.60,527.80 210.48,527.77 211.36,527.73 212.24,527.70 213.12,527.67 214.00,527.63 214.88,527.60 215.76,527.57 216.64,527.53 217.52,527.50 218.40,527.46 219.28,527.43 220.16,527.39 221.04,527.36 221.92,527.33 222.80,527.29 223.68,527.26 224.56,527.22 225.44,527.19 226.32,527.15 227.20,527.12 228.08,527.08 228.96,527.05 229.84,527.01 230.72,526.98 231.60,526.94 232.48,526.91 233.36,526.87 234.24,526.84 235.12,526.80 236.00,526.77 236.88,526.73 237.76,526.69 238.64,526.66 239.52,526.62 240.40,526.59 241.28,526.55 242.16,526.51 243.04,526.48 243.92,526.44 244.80,526.40 245.68,526.37 246.56,526.33 247.44,526.29 248.32,526.26 249.20,526.22 250.08,526.18 250.96,526.15 251.84,526.11 252.72,526.07 253.60,526.04 254.48,526.00 255.36,525.96 256.24,525.92 257.12,525.88 258.00,525.85 258.88,525.81 259.76,525.77 260.64,525.73 261.52,525.70 262.40,525.66 263.28,525.62 264.16,525.58 265.04,525.54 265.92,525.50 266.80,525.46 267.68,525.43 268.56,525.39 269.44,525.35 270.32,525.31 271.20,525.27 272.08,525.23 272.96,525.19 273.84,525.15 274.72,525.11 275.60,525.07 276.48,525.03 277.36,524.99 278.24,524.95 279.12,524.91 280.00,524.87 280.88,524.83 281.76,524.79 282.64,524.75 283.52,524.71 284.40,524.67 285.28,524.63 286.16,524.59 287.04,524.55 287.92,524.51 288.80,524.47 289.68,524.43 290.56,524.39 291.44,524.34 292.32,524.30 293.20,524.26 294.08,524.22 294.96,524.18 295.84,524.14 296.72,524.09 297.60,524.05 298.48,524.01 299.36,523.97 300.24,523.93 301.12,523.88 302.00,523.84 302.88,523.80 303.76,523.76 304.64,523.71 305.52,523.67 306.40,523.63 307.28,523.58 308.16,523.54 309.04,523.50 309.92,523.45 310.80,523.41 311.68,523.37 312.56,523.32 313.44,523.28 314.32,523.24 315.20,523.19 316.08,523.15 316.96,523.10 317.84,523.06 318.72,523.01 319.60,522.97 320.48,522.92 321.36,522.88 322.24,522.83 323.12,522.79 324.00,522.74 324.88,522.70 325.76,522.65 326.64,522.61 327.52,522.56 328.40,522.52 329.28,522.47 330.16,522.43 331.04,522.38 331.92,522.33 332.80,522.29 333.68,522.24 334.56,522.19 335.44,522.15 336.32,522.10 337.20,522.05 338.08,522.01 338.96,521.96 339.84,521.91 340.72,521.87 341.60,521.82 342.48,521.77 343.36,521.72 344.24,521.67 345.12,521.63 346.00,521.58 346.88,521.53 347.76,521.48 348.64,521.43 349.52,521.39 350.40,521.34 351.28,521.29 352.16,521.24 353.04,521.19 353.92,521.14 354.80,521.09 355.68,521.04 356.56,520.99 357.44,520.94 358.32,520.89 359.20,520.84 360.08,520.79 360.96,520.74 361.84,520.69 362.72,520.64 363.60,520.59 364.48,520.54 365.36,520.49 366.24,520.44 367.12,520.39 368.00,520.34 368.88,520.29 369.76,520.23 370.64,520.18 371.52,520.13 372.40,520.08 373.28,520.03 374.16,519.98 375.04,519.92 375.92,519.87 376.80,519.82 377.68,519.77 378.56,519.71 379.44,519.66 380.32,519.61 381.20,519.55 382.08,519.50 382.96,519.45 383.84,519.39 384.72,519.34 385.60,519.29 386.48,519.23 387.36,519.18 388.24,519.12 389.12,519.07 390.00,519.01 390.88,518.96 391.76,518.90 392.64,518.85 393.52,518.79 394.40,518.74 395.28,518.68 396.16,518.63 397.04,518.57 397.92,518.52 398.80,518.46 399.68,518.40 400.56,518.35 401.44,518.29 402.32,518.23 403.20,518.18 404.08,518.12 404.96,518.06 405.84,518.01 406.72,517.95 407.60,517.89 408.48,517.83 409.36,517.78 410.24,517.72 411.12,517.66 412.00,517.60 412.88,517.54 413.76,517.48 414.64,517.43 415.52,517.37 416.40,517.31 417.28,517.25 418.16,517.19 419.04,517.13 419.92,517.07 420.80,517.01 421.68,516.95 422.56,516.89 423.44,516.83 424.32,516.77 425.20,516.71 426.08,516.65 426.96,516.59 427.84,516.53 428.72,516.46 429.60,516.40 430.48,516.34 431.36,516.28 432.24,516.22 433.12,516.15 434.00,516.09 434.88,516.03 435.76,515.97 436.64,515.90 437.52,515.84 438.40,515.78 439.28,515.71 440.16,515.65 441.04,515.59 441.92,515.52 442.80,515.46 443.68,515.39 444.56,515.33 445.44,515.27 446.32,515.20 447.20,515.14 448.08,515.07 448.96,515.01 449.84,514.94 450.72,514.87 451.60,514.81 452.48,514.74 453.36,514.68 454.24,514.61 455.12,514.54 456.00,514.48 456.88,514.41 457.76,514.34 458.64,514.27 459.52,514.21 460.40,514.14 461.28,514.07 462.16,514.00 463.04,513.93 463.92,513.87 464.80,513.80 465.68,513.73 466.56,513.66 467.44,513.59 468.32,513.52 469.20,513.45 470.08,513.38 470.96,513.31 471.84,513.24 472.72,513.17 473.60,513.10 474.48,513.03 475.36,512.96 476.24,512.89 477.12,512.81 478.00,512.74 478.88,512.67 479.76,512.60 480.64,512.53 481.52,512.45 482.40,512.38 483.28,512.31 484.16,512.23 485.04,512.16 485.92,512.09 486.80,512.01 487.68,511.94 488.56,511.86 489.44,511.79 490.32,511.72 491.20,511.64 492.08,511.56 492.96,511.49 493.84,511.41 494.72,511.34 495.60,511.26 496.48,511.19 497.36,511.11 498.24,511.03 499.12,510.96 500.00,510.88 500.88,510.80 501.76,510.72 502.64,510.65 503.52,510.57 504.40,510.49 505.28,510.41 506.16,510.33 507.04,510.25 507.92,510.17 508.80,510.09 509.68,510.01 510.56,509.93 511.44,509.85 512.32,509.77 513.20,509.69 514.08,509.61 514.96,509.53 515.84,509.45 516.72,509.37 517.60,509.29 518.48,509.20 519.36,509.12 520.24,509.04 521.12,508.96 522.00,508.87 522.88,508.79 523.76,508.71 524.64,508.62 525.52,508.54 526.40,508.45 527.28,508.37 528.16,508.28 529.04,508.20 529.92,508.11 530.80,508.03 531.68,507.94 532.56,507.85 533.44,507.77 534.32,507.68 535.20,507.59 536.08,507.51 536.96,507.42 537.84,507.33 538.72,507.24 539.60,507.15 540.48,507.07 541.36,506.98 542.24,506.89 543.12,506.80 544.00,506.71 544.88,506.62 545.76,506.53 546.64,506.44 547.52,506.35 548.40,506.25 549.28,506.16 550.16,506.07 551.04,505.98 551.92,505.89 552.80,505.79 553.68,505.70 554.56,505.61 555.44,505.51 556.32,505.42 557.20,505.33 558.08,505.23 558.96,505.14 559.84,505.04 560.72,504.95 561.60,504.85 562.48,504.75 563.36,504.66 564.24,504.56 565.12,504.46 566.00,504.37 566.88,504.27 567.76,504.17 568.64,504.07 569.52,503.97 570.40,503.88 571.28,503.78 572.16,503.68 573.04,503.58 573.92,503.48 574.80,503.38 575.68,503.28 576.56,503.17 577.44,503.07 578.32,502.97 579.20,502.87 580.08,502.77 580.96,502.66 581.84,502.56 582.72,502.46 583.60,502.35 584.48,502.25 585.36,502.14 586.24,502.04 587.12,501.93 588.00,501.83 588.88,501.72 589.76,501.62 590.64,501.51 591.52,501.40 592.40,501.29 593.28,501.19 594.16,501.08 595.04,500.97 595.92,500.86 596.80,500.75 597.68,500.64 598.56,500.53 599.44,500.42 600.32,500.31 601.20,500.20 602.08,500.09 602.96,499.98 603.84,499.86 604.72,499.75 605.60,499.64 606.48,499.53 607.36,499.41 608.24,499.30 609.12,499.18 610.00,499.07 610.88,498.95 611.76,498.84 612.64,498.72 613.52,498.60 614.40,498.49 615.28,498.37 616.16,498.25 617.04,498.13 617.92,498.01 618.80,497.90 619.68,497.78 620.56,497.66 621.44,497.54 622.32,497.41 623.20,497.29 624.08,497.17 624.96,497.05 625.84,496.93 626.72,496.80 627.60,496.68 628.48,496.56 629.36,496.43 630.24,496.31 631.12,496.18 632.00,496.06 632.88,495.93 633.76,495.81 634.64,495.68 635.52,495.55 636.40,495.42 637.28,495.29 638.16,495.17 639.04,495.04 639.92,494.91 640.80,494.78 641.68,494.65 642.56,494.51 643.44,494.38 644.32,494.25 645.20,494.12 646.08,493.99 646.96,493.85 647.84,493.72 648.72,493.58 649.60,493.45 650.48,493.31 651.36,493.18 652.24,493.04 653.12,492.90 654.00,492.76 654.88,492.63 655.76,492.49 656.64,492.35 657.52,492.21 658.40,492.07 659.28,491.93 660.16,491.79 661.04,491.64 661.92,491.50 662.80,491.36 663.68,491.22 664.56,491.07 665.44,490.93 666.32,490.78 667.20,490.64 668.08,490.49 668.96,490.34 669.84,490.20 670.72,490.05 671.60,489.90 672.48,489.75 673.36,489.60 674.24,489.45 675.12,489.30 676.00,489.15 676.88,489.00 677.76,488.84 678.64,488.69 679.52,488.54 680.40,488.38 681.28,488.23 682.16,488.07 683.04,487.91 683.92,487.76 684.80,487.60 685.68,487.44 686.56,487.28 687.44,487.12 688.32,486.96 689.20,486.80 690.08,486.64 690.96,486.48 691.84,486.32 692.72,486.15 693.60,485.99 694.48,485.83 695.36,485.66 696.24,485.49 697.12,485.33 698.00,485.16 698.88,484.99 699.76,484.82 700.64,484.65 701.52,484.48 702.40,484.31 703.28,484.14 704.16,483.97 705.04,483.80 705.92,483.62 706.80,483.45 707.68,483.27 708.56,483.10 709.44,482.92 710.32,482.74 711.20,482.57 712.08,482.39 712.96,482.21 713.84,482.03 714.72,481.85 715.60,481.67 716.48,481.48 717.36,481.30 718.24,481.12 719.12,480.93 720.00,480.74 720.88,480.56 721.76,480.37 722.64,480.18 723.52,479.99 724.40,479.80 725.28,479.61 726.16,479.42 727.04,479.23 727.92,479.04 728.80,478.84 729.68,478.65 730.56,478.45 731.44,478.26 732.32,478.06 733.20,477.86 734.08,477.66 734.96,477.46 735.84,477.26 736.72,477.06 737.60,476.86 738.48,476.65 739.36,476.45 740.24,476.24 741.12,476.04 742.00,475.83 742.88,475.62 743.76,475.41 744.64,475.20 745.52,474.99 746.40,474.78 747.28,474.57 748.16,474.35 749.04,474.14 749.92,473.92 750.80,473.70 751.68,473.49 752.56,473.27 753.44,473.05 754.32,472.83 755.20,472.60 756.08,472.38 756.96,472.16 757.84,471.93 758.72,471.71 759.60,471.48 760.48,471.25 761.36,471.02 762.24,470.79 763.12,470.56 764.00,470.33 764.88,470.09 765.76,469.86 766.64,469.62 767.52,469.38 768.40,469.15 769.28,468.91 770.16,468.67 771.04,468.42 771.92,468.18 772.80,467.94 773.68,467.69 774.56,467.45 775.44,467.20 776.32,466.95 777.20,466.70 778.08,466.45 778.96,466.19 779.84,465.94 780.72,465.69 781.60,465.43 782.48,465.17 783.36,464.91 784.24,464.65 785.12,464.39 786.00,464.13 786.88,463.86 787.76,463.60 788.64,463.33 789.52,463.06 790.40,462.79 791.28,462.52 792.16,462.25 793.04,461.97 793.92,461.70 794.80,461.42 795.68,461.14 796.56,460.86 797.44,460.58 798.32,460.30 799.20,460.02 800.08,459.73 800.96,459.44 801.84,459.15 802.72,458.86 803.60,458.57 804.48,458.28 805.36,457.98 806.24,457.69 807.12,457.39 808.00,457.09 808.88,456.79 809.76,456.49 810.64,456.18 811.52,455.87 812.40,455.57 813.28,455.26 814.16,454.95 815.04,454.63 815.92,454.32 816.80,454.00 817.68,453.68 818.56,453.36 819.44,453.04 820.32,452.72 821.20,452.39 822.08,452.06 822.96,451.73 823.84,451.40 824.72,451.07 825.60,450.74 826.48,450.40 827.36,450.06 828.24,449.72 829.12,449.38 830.00,449.03 830.88,448.68 831.76,448.34 832.64,447.99 833.52,447.63 834.40,447.28 835.28,446.92 836.16,446.56 837.04,446.20 837.92,445.84 838.80,445.47 839.68,445.10 840.56,444.73 841.44,444.36 842.32,443.99 843.20,443.61 844.08,443.23 844.96,442.85 845.84,442.46 846.72,442.08 847.60,441.69 848.48,441.30 849.36,440.90 850.24,440.51 851.12,440.11 852.00,439.71 852.88,439.31 853.76,438.90 854.64,438.49 855.52,438.08 856.40,437.67 857.28,437.25 858.16,436.83 859.04,436.41 859.92,435.98 860.80,435.56 861.68,435.13 862.56,434.69 863.44,434.26 864.32,433.82 865.20,433.38 866.08,432.93 866.96,432.48 867.84,432.03 868.72,431.58 869.60,431.12 870.48,430.66 871.36,430.20 872.24,429.73 873.12,429.26 874.00,428.79 874.88,428.32 875.76,427.84 876.64,427.35 877.52,426.87 878.40,426.38 879.28,425.89 880.16,425.39 881.04,424.89 881.92,424.39 882.80,423.88 883.68,423.37 884.56,422.85 885.44,422.34 886.32,421.81 887.20,421.29 888.08,420.76 888.96,420.22 889.84,419.69 890.72,419.15 891.60,418.60 892.48,418.05 893.36,417.50 894.24,416.94 895.12,416.38 896.00,415.81 896.88,415.24 897.76,414.66 898.64,414.08 899.52,413.50 900.40,412.91 901.28,412.32 902.16,411.72 903.04,411.12 903.92,410.51 904.80,409.90 905.68,409.28 906.56,408.66 907.44,408.03 908.32,407.40 909.20,406.76 910.08,406.12 910.96,405.47 911.84,404.81 912.72,404.15 913.60,403.49 914.48,402.82 915.36,402.14 916.24,401.46 917.12,400.77 918.00,400.08 918.88,399.38 919.76,398.68 920.64,397.96 921.52,397.25 922.40,396.52 923.28,395.79 924.16,395.05 925.04,394.31 925.92,393.56 926.80,392.80 927.68,392.04 928.56,391.27 929.44,390.49 930.32,389.70 931.20,388.91 932.08,388.11 932.96,387.30 933.84,386.49 934.72,385.66 935.60,384.83 936.48,383.99 937.36,383.14 938.24,382.29 939.12,381.42 940.00,380.55 940.88,379.67 941.76,378.78 942.64,377.88 943.52,376.97 944.40,376.06 945.28,375.13 946.16,374.19 947.04,373.25 947.92,372.29 948.80,371.32 949.68,370.35 950.56,369.36 951.44,368.36 952.32,367.35 953.20,366.34 954.08,365.31 954.96,364.26 955.84,363.21 956.72,362.15 957.60,361.07 958.48,359.98 959.36,358.88 960.24,357.76 961.12,356.64 962.00,356.07" fill="none" stroke="#d62728" stroke-width="2.2"/>
<line x1="775" y1="352" x2="799" y2="352" stroke="#d62728" stroke-width="2.2"/>
<text x="805" y="356" class="legend">omega at vNut=1 mm/s (deg/s)</text>
<rect x="20" y="606" width="960" height="280" fill="#ffffff" stroke="#d0d0d0"/>
<text x="500.0" y="628.0" text-anchor="middle" class="title">Jaw angular acceleration - nut acceleration</text>
<line x1="82.00" y1="640" x2="82.00" y2="844" class="grid"/>
<text x="82.00" y="862" text-anchor="middle" class="tick">0</text>
<line x1="302.00" y1="640" x2="302.00" y2="844" class="grid"/>
<text x="302.00" y="862" text-anchor="middle" class="tick">4</text>
<line x1="522.00" y1="640" x2="522.00" y2="844" class="grid"/>
<text x="522.00" y="862" text-anchor="middle" class="tick">8</text>
<line x1="742.00" y1="640" x2="742.00" y2="844" class="grid"/>
<text x="742.00" y="862" text-anchor="middle" class="tick">12</text>
<line x1="962.00" y1="640" x2="962.00" y2="844" class="grid"/>
<text x="962.00" y="862" text-anchor="middle" class="tick">16</text>
<line x1="82" y1="844.00" x2="962" y2="844.00" class="grid"/>
<text x="74" y="848.00" text-anchor="end" class="tick">-0.17</text>
<line x1="82" y1="793.00" x2="962" y2="793.00" class="grid"/>
<text x="74" y="797.00" text-anchor="end" class="tick">0.56</text>
<line x1="82" y1="742.00" x2="962" y2="742.00" class="grid"/>
<text x="74" y="746.00" text-anchor="end" class="tick">1.29</text>
<line x1="82" y1="691.00" x2="962" y2="691.00" class="grid"/>
<text x="74" y="695.00" text-anchor="end" class="tick">2.02</text>
<line x1="82" y1="640.00" x2="962" y2="640.00" class="grid"/>
<text x="74" y="644.00" text-anchor="end" class="tick">2.75</text>
<line x1="82" y1="844" x2="962" y2="844" class="axis"/>
<line x1="82" y1="640" x2="82" y2="844" class="axis"/>
<text x="500.0" y="876.0" text-anchor="middle" class="label">Nut stroke s (mm)</text>
<text x="34.0" y="746.0" transform="rotate(-90 34.0,746.0)" text-anchor="middle" class="label">d2phi/ds2 (deg/mm^2)</text>
<polyline points="82.00,829.93 82.88,828.96 83.76,827.99 84.64,827.98 85.52,827.97 86.40,827.96 87.28,827.95 88.16,827.94 89.04,827.94 89.92,827.93 90.80,827.92 91.68,827.91 92.56,827.90 93.44,827.90 94.32,827.89 95.20,827.88 96.08,827.87 96.96,827.86 97.84,827.85 98.72,827.84 99.60,827.84 100.48,827.83 101.36,827.82 102.24,827.81 103.12,827.80 104.00,827.79 104.88,827.78 105.76,827.78 106.64,827.77 107.52,827.76 108.40,827.75 109.28,827.74 110.16,827.73 111.04,827.72 111.92,827.72 112.80,827.71 113.68,827.70 114.56,827.69 115.44,827.68 116.32,827.67 117.20,827.66 118.08,827.65 118.96,827.64 119.84,827.63 120.72,827.63 121.60,827.62 122.48,827.61 123.36,827.60 124.24,827.59 125.12,827.58 126.00,827.57 126.88,827.56 127.76,827.55 128.64,827.54 129.52,827.53 130.40,827.53 131.28,827.52 132.16,827.51 133.04,827.50 133.92,827.49 134.80,827.48 135.68,827.47 136.56,827.46 137.44,827.45 138.32,827.44 139.20,827.43 140.08,827.42 140.96,827.41 141.84,827.40 142.72,827.39 143.60,827.38 144.48,827.37 145.36,827.36 146.24,827.35 147.12,827.34 148.00,827.33 148.88,827.32 149.76,827.31 150.64,827.30 151.52,827.29 152.40,827.28 153.28,827.27 154.16,827.27 155.04,827.26 155.92,827.25 156.80,827.23 157.68,827.22 158.56,827.21 159.44,827.20 160.32,827.19 161.20,827.18 162.08,827.17 162.96,827.16 163.84,827.15 164.72,827.14 165.60,827.13 166.48,827.12 167.36,827.11 168.24,827.10 169.12,827.09 170.00,827.08 170.88,827.07 171.76,827.06 172.64,827.05 173.52,827.04 174.40,827.03 175.28,827.02 176.16,827.01 177.04,827.00 177.92,826.99 178.80,826.97 179.68,826.96 180.56,826.95 181.44,826.94 182.32,826.93 183.20,826.92 184.08,826.91 184.96,826.90 185.84,826.89 186.72,826.88 187.60,826.87 188.48,826.85 189.36,826.84 190.24,826.83 191.12,826.82 192.00,826.81 192.88,826.80 193.76,826.79 194.64,826.78 195.52,826.76 196.40,826.75 197.28,826.74 198.16,826.73 199.04,826.72 199.92,826.71 200.80,826.70 201.68,826.68 202.56,826.67 203.44,826.66 204.32,826.65 205.20,826.64 206.08,826.63 206.96,826.61 207.84,826.60 208.72,826.59 209.60,826.58 210.48,826.57 211.36,826.55 212.24,826.54 213.12,826.53 214.00,826.52 214.88,826.51 215.76,826.49 216.64,826.48 217.52,826.47 218.40,826.46 219.28,826.45 220.16,826.43 221.04,826.42 221.92,826.41 222.80,826.40 223.68,826.38 224.56,826.37 225.44,826.36 226.32,826.35 227.20,826.33 228.08,826.32 228.96,826.31 229.84,826.30 230.72,826.28 231.60,826.27 232.48,826.26 233.36,826.25 234.24,826.23 235.12,826.22 236.00,826.21 236.88,826.19 237.76,826.18 238.64,826.17 239.52,826.15 240.40,826.14 241.28,826.13 242.16,826.12 243.04,826.10 243.92,826.09 244.80,826.08 245.68,826.06 246.56,826.05 247.44,826.04 248.32,826.02 249.20,826.01 250.08,825.99 250.96,825.98 251.84,825.97 252.72,825.95 253.60,825.94 254.48,825.93 255.36,825.91 256.24,825.90 257.12,825.88 258.00,825.87 258.88,825.86 259.76,825.84 260.64,825.83 261.52,825.81 262.40,825.80 263.28,825.79 264.16,825.77 265.04,825.76 265.92,825.74 266.80,825.73 267.68,825.71 268.56,825.70 269.44,825.69 270.32,825.67 271.20,825.66 272.08,825.64 272.96,825.63 273.84,825.61 274.72,825.60 275.60,825.58 276.48,825.57 277.36,825.55 278.24,825.54 279.12,825.52 280.00,825.51 280.88,825.49 281.76,825.48 282.64,825.46 283.52,825.45 284.40,825.43 285.28,825.42 286.16,825.40 287.04,825.39 287.92,825.37 288.80,825.36 289.68,825.34 290.56,825.33 291.44,825.31 292.32,825.29 293.20,825.28 294.08,825.26 294.96,825.25 295.84,825.23 296.72,825.21 297.60,825.20 298.48,825.18 299.36,825.17 300.24,825.15 301.12,825.13 302.00,825.12 302.88,825.10 303.76,825.09 304.64,825.07 305.52,825.05 306.40,825.04 307.28,825.02 308.16,825.00 309.04,824.99 309.92,824.97 310.80,824.95 311.68,824.94 312.56,824.92 313.44,824.90 314.32,824.89 315.20,824.87 316.08,824.85 316.96,824.83 317.84,824.82 318.72,824.80 319.60,824.78 320.48,824.77 321.36,824.75 322.24,824.73 323.12,824.71 324.00,824.70 324.88,824.68 325.76,824.66 326.64,824.64 327.52,824.62 328.40,824.61 329.28,824.59 330.16,824.57 331.04,824.55 331.92,824.53 332.80,824.52 333.68,824.50 334.56,824.48 335.44,824.46 336.32,824.44 337.20,824.43 338.08,824.41 338.96,824.39 339.84,824.37 340.72,824.35 341.60,824.33 342.48,824.31 343.36,824.29 344.24,824.28 345.12,824.26 346.00,824.24 346.88,824.22 347.76,824.20 348.64,824.18 349.52,824.16 350.40,824.14 351.28,824.12 352.16,824.10 353.04,824.08 353.92,824.06 354.80,824.04 355.68,824.02 356.56,824.00 357.44,823.98 358.32,823.96 359.20,823.94 360.08,823.92 360.96,823.90 361.84,823.88 362.72,823.86 363.60,823.84 364.48,823.82 365.36,823.80 366.24,823.78 367.12,823.76 368.00,823.74 368.88,823.72 369.76,823.70 370.64,823.68 371.52,823.66 372.40,823.64 373.28,823.61 374.16,823.59 375.04,823.57 375.92,823.55 376.80,823.53 377.68,823.51 378.56,823.49 379.44,823.46 380.32,823.44 381.20,823.42 382.08,823.40 382.96,823.38 383.84,823.35 384.72,823.33 385.60,823.31 386.48,823.29 387.36,823.27 388.24,823.24 389.12,823.22 390.00,823.20 390.88,823.18 391.76,823.15 392.64,823.13 393.52,823.11 394.40,823.08 395.28,823.06 396.16,823.04 397.04,823.01 397.92,822.99 398.80,822.97 399.68,822.94 400.56,822.92 401.44,822.90 402.32,822.87 403.20,822.85 404.08,822.83 404.96,822.80 405.84,822.78 406.72,822.75 407.60,822.73 408.48,822.70 409.36,822.68 410.24,822.66 411.12,822.63 412.00,822.61 412.88,822.58 413.76,822.56 414.64,822.53 415.52,822.51 416.40,822.48 417.28,822.46 418.16,822.43 419.04,822.41 419.92,822.38 420.80,822.35 421.68,822.33 422.56,822.30 423.44,822.28 424.32,822.25 425.20,822.23 426.08,822.20 426.96,822.17 427.84,822.15 428.72,822.12 429.60,822.09 430.48,822.07 431.36,822.04 432.24,822.01 433.12,821.99 434.00,821.96 434.88,821.93 435.76,821.91 436.64,821.88 437.52,821.85 438.40,821.82 439.28,821.80 440.16,821.77 441.04,821.74 441.92,821.71 442.80,821.68 443.68,821.66 444.56,821.63 445.44,821.60 446.32,821.57 447.20,821.54 448.08,821.51 448.96,821.48 449.84,821.46 450.72,821.43 451.60,821.40 452.48,821.37 453.36,821.34 454.24,821.31 455.12,821.28 456.00,821.25 456.88,821.22 457.76,821.19 458.64,821.16 459.52,821.13 460.40,821.10 461.28,821.07 462.16,821.04 463.04,821.01 463.92,820.98 464.80,820.95 465.68,820.92 466.56,820.88 467.44,820.85 468.32,820.82 469.20,820.79 470.08,820.76 470.96,820.73 471.84,820.70 472.72,820.66 473.60,820.63 474.48,820.60 475.36,820.57 476.24,820.53 477.12,820.50 478.00,820.47 478.88,820.44 479.76,820.40 480.64,820.37 481.52,820.34 482.40,820.30 483.28,820.27 484.16,820.24 485.04,820.20 485.92,820.17 486.80,820.13 487.68,820.10 488.56,820.07 489.44,820.03 490.32,820.00 491.20,819.96 492.08,819.93 492.96,819.89 493.84,819.86 494.72,819.82 495.60,819.79 496.48,819.75 497.36,819.72 498.24,819.68 499.12,819.64 500.00,819.61 500.88,819.57 501.76,819.53 502.64,819.50 503.52,819.46 504.40,819.42 505.28,819.39 506.16,819.35 507.04,819.31 507.92,819.27 508.80,819.24 509.68,819.20 510.56,819.16 511.44,819.12 512.32,819.09 513.20,819.05 514.08,819.01 514.96,818.97 515.84,818.93 516.72,818.89 517.60,818.85 518.48,818.81 519.36,818.77 520.24,818.73 521.12,818.69 522.00,818.65 522.88,818.61 523.76,818.57 524.64,818.53 525.52,818.49 526.40,818.45 527.28,818.41 528.16,818.37 529.04,818.33 529.92,818.28 530.80,818.24 531.68,818.20 532.56,818.16 533.44,818.12 534.32,818.07 535.20,818.03 536.08,817.99 536.96,817.94 537.84,817.90 538.72,817.86 539.60,817.81 540.48,817.77 541.36,817.73 542.24,817.68 543.12,817.64 544.00,817.59 544.88,817.55 545.76,817.50 546.64,817.46 547.52,817.41 548.40,817.37 549.28,817.32 550.16,817.27 551.04,817.23 551.92,817.18 552.80,817.14 553.68,817.09 554.56,817.04 555.44,816.99 556.32,816.95 557.20,816.90 558.08,816.85 558.96,816.80 559.84,816.75 560.72,816.71 561.60,816.66 562.48,816.61 563.36,816.56 564.24,816.51 565.12,816.46 566.00,816.41 566.88,816.36 567.76,816.31 568.64,816.26 569.52,816.21 570.40,816.16 571.28,816.11 572.16,816.05 573.04,816.00 573.92,815.95 574.80,815.90 575.68,815.85 576.56,815.79 577.44,815.74 578.32,815.69 579.20,815.63 580.08,815.58 580.96,815.53 581.84,815.47 582.72,815.42 583.60,815.36 584.48,815.31 585.36,815.25 586.24,815.20 587.12,815.14 588.00,815.08 588.88,815.03 589.76,814.97 590.64,814.92 591.52,814.86 592.40,814.80 593.28,814.74 594.16,814.69 595.04,814.63 595.92,814.57 596.80,814.51 597.68,814.45 598.56,814.39 599.44,814.33 600.32,814.27 601.20,814.21 602.08,814.15 602.96,814.09 603.84,814.03 604.72,813.97 605.60,813.91 606.48,813.84 607.36,813.78 608.24,813.72 609.12,813.66 610.00,813.59 610.88,813.53 611.76,813.47 612.64,813.40 613.52,813.34 614.40,813.27 615.28,813.21 616.16,813.14 617.04,813.08 617.92,813.01 618.80,812.94 619.68,812.88 620.56,812.81 621.44,812.74 622.32,812.68 623.20,812.61 624.08,812.54 624.96,812.47 625.84,812.40 626.72,812.33 627.60,812.26 628.48,812.19 629.36,812.12 630.24,812.05 631.12,811.98 632.00,811.91 632.88,811.84 633.76,811.76 634.64,811.69 635.52,811.62 636.40,811.54 637.28,811.47 638.16,811.40 639.04,811.32 639.92,811.25 640.80,811.17 641.68,811.10 642.56,811.02 643.44,810.94 644.32,810.87 645.20,810.79 646.08,810.71 646.96,810.63 647.84,810.55 648.72,810.47 649.60,810.39 650.48,810.31 651.36,810.23 652.24,810.15 653.12,810.07 654.00,809.99 654.88,809.91 655.76,809.83 656.64,809.74 657.52,809.66 658.40,809.58 659.28,809.49 660.16,809.41 661.04,809.32 661.92,809.24 662.80,809.15 663.68,809.06 664.56,808.98 665.44,808.89 666.32,808.80 667.20,808.71 668.08,808.62 668.96,808.53 669.84,808.44 670.72,808.35 671.60,808.26 672.48,808.17 673.36,808.08 674.24,807.99 675.12,807.89 676.00,807.80 676.88,807.70 677.76,807.61 678.64,807.51 679.52,807.42 680.40,807.32 681.28,807.23 682.16,807.13 683.04,807.03 683.92,806.93 684.80,806.83 685.68,806.73 686.56,806.63 687.44,806.53 688.32,806.43 689.20,806.33 690.08,806.22 690.96,806.12 691.84,806.02 692.72,805.91 693.60,805.81 694.48,805.70 695.36,805.60 696.24,805.49 697.12,805.38 698.00,805.27 698.88,805.16 699.76,805.06 700.64,804.95 701.52,804.83 702.40,804.72 703.28,804.61 704.16,804.50 705.04,804.38 705.92,804.27 706.80,804.16 707.68,804.04 708.56,803.92 709.44,803.81 710.32,803.69 711.20,803.57 712.08,803.45 712.96,803.33 713.84,803.21 714.72,803.09 715.60,802.97 716.48,802.84 717.36,802.72 718.24,802.60 719.12,802.47 720.00,802.34 720.88,802.22 721.76,802.09 722.64,801.96 723.52,801.83 724.40,801.70 725.28,801.57 726.16,801.44 727.04,801.31 727.92,801.17 728.80,801.04 729.68,800.90 730.56,800.77 731.44,800.63 732.32,800.49 733.20,800.36 734.08,800.22 734.96,800.08 735.84,799.93 736.72,799.79 737.60,799.65 738.48,799.50 739.36,799.36 740.24,799.21 741.12,799.07 742.00,798.92 742.88,798.77 743.76,798.62 744.64,798.47 745.52,798.32 746.40,798.16 747.28,798.01 748.16,797.85 749.04,797.70 749.92,797.54 750.80,797.38 751.68,797.22 752.56,797.06 753.44,796.90 754.32,796.74 755.20,796.57 756.08,796.41 756.96,796.24 757.84,796.08 758.72,795.91 759.60,795.74 760.48,795.57 761.36,795.39 762.24,795.22 763.12,795.05 764.00,794.87 764.88,794.69 765.76,794.52 766.64,794.34 767.52,794.16 768.40,793.97 769.28,793.79 770.16,793.61 771.04,793.42 771.92,793.23 772.80,793.04 773.68,792.85 774.56,792.66 775.44,792.47 776.32,792.27 777.20,792.08 778.08,791.88 778.96,791.68 779.84,791.48 780.72,791.28 781.60,791.08 782.48,790.87 783.36,790.67 784.24,790.46 785.12,790.25 786.00,790.04 786.88,789.83 787.76,789.61 788.64,789.40 789.52,789.18 790.40,788.96 791.28,788.74 792.16,788.52 793.04,788.29 793.92,788.07 794.80,787.84 795.68,787.61 796.56,787.38 797.44,787.14 798.32,786.91 799.20,786.67 800.08,786.43 800.96,786.19 801.84,785.95 802.72,785.70 803.60,785.46 804.48,785.21 805.36,784.96 806.24,784.71 807.12,784.45 808.00,784.19 808.88,783.94 809.76,783.67 810.64,783.41 811.52,783.15 812.40,782.88 813.28,782.61 814.16,782.34 815.04,782.06 815.92,781.79 816.80,781.51 817.68,781.23 818.56,780.94 819.44,780.66 820.32,780.37 821.20,780.08 822.08,779.78 822.96,779.49 823.84,779.19 824.72,778.89 825.60,778.58 826.48,778.28 827.36,777.97 828.24,777.65 829.12,777.34 830.00,777.02 830.88,776.70 831.76,776.38 832.64,776.05 833.52,775.72 834.40,775.39 835.28,775.06 836.16,774.72 837.04,774.38 837.92,774.03 838.80,773.68 839.68,773.33 840.56,772.98 841.44,772.62 842.32,772.26 843.20,771.90 844.08,771.53 844.96,771.16 845.84,770.79 846.72,770.41 847.60,770.03 848.48,769.64 849.36,769.25 850.24,768.86 851.12,768.46 852.00,768.06 852.88,767.66 853.76,767.25 854.64,766.84 855.52,766.42 856.40,766.00 857.28,765.58 858.16,765.15 859.04,764.71 859.92,764.28 860.80,763.83 861.68,763.39 862.56,762.94 863.44,762.48 864.32,762.02 865.20,761.56 866.08,761.09 866.96,760.61 867.84,760.13 868.72,759.65 869.60,759.16 870.48,758.66 871.36,758.16 872.24,757.66 873.12,757.15 874.00,756.63 874.88,756.11 875.76,755.58 876.64,755.05 877.52,754.51 878.40,753.96 879.28,753.41 880.16,752.85 881.04,752.29 881.92,751.72 882.80,751.14 883.68,750.56 884.56,749.97 885.44,749.37 886.32,748.77 887.20,748.16 888.08,747.54 888.96,746.92 889.84,746.29 890.72,745.65 891.60,745.00 892.48,744.35 893.36,743.69 894.24,743.02 895.12,742.34 896.00,741.65 896.88,740.96 897.76,740.26 898.64,739.54 899.52,738.82 900.40,738.10 901.28,737.36 902.16,736.61 903.04,735.85 903.92,735.09 904.80,734.31 905.68,733.53 906.56,732.73 907.44,731.92 908.32,731.11 909.20,730.28 910.08,729.44 910.96,728.59 911.84,727.73 912.72,726.86 913.60,725.98 914.48,725.08 915.36,724.18 916.24,723.26 917.12,722.33 918.00,721.38 918.88,720.42 919.76,719.45 920.64,718.47 921.52,717.47 922.40,716.46 923.28,715.43 924.16,714.39 925.04,713.33 925.92,712.26 926.80,711.17 927.68,710.07 928.56,708.95 929.44,707.81 930.32,706.66 931.20,705.49 932.08,704.30 932.96,703.09 933.84,701.87 934.72,700.62 935.60,699.36 936.48,698.08 937.36,696.78 938.24,695.45 939.12,694.11 940.00,692.74 940.88,691.35 941.76,689.94 942.64,688.51 943.52,687.05 944.40,685.57 945.28,684.07 946.16,682.54 947.04,680.98 947.92,679.40 948.80,677.79 949.68,676.15 950.56,674.49 951.44,672.79 952.32,671.07 953.20,669.31 954.08,667.52 954.96,665.71 955.84,663.85 956.72,661.97 957.60,660.05 958.48,658.09 959.36,656.10 960.24,654.07 961.12,697.49 962.00,741.94" fill="none" stroke="#1f77b4" stroke-width="2.2"/>
<line x1="775" y1="632" x2="799" y2="632" stroke="#1f77b4" stroke-width="2.2"/>
<text x="805" y="636" class="legend">d2phi/ds2 (deg/mm^2)</text>
<polyline points="82.00,829.93 82.88,828.96 83.76,827.99 84.64,827.98 85.52,827.97 86.40,827.96 87.28,827.95 88.16,827.94 89.04,827.94 89.92,827.93 90.80,827.92 91.68,827.91 92.56,827.90 93.44,827.90 94.32,827.89 95.20,827.88 96.08,827.87 96.96,827.86 97.84,827.85 98.72,827.84 99.60,827.84 100.48,827.83 101.36,827.82 102.24,827.81 103.12,827.80 104.00,827.79 104.88,827.78 105.76,827.78 106.64,827.77 107.52,827.76 108.40,827.75 109.28,827.74 110.16,827.73 111.04,827.72 111.92,827.72 112.80,827.71 113.68,827.70 114.56,827.69 115.44,827.68 116.32,827.67 117.20,827.66 118.08,827.65 118.96,827.64 119.84,827.63 120.72,827.63 121.60,827.62 122.48,827.61 123.36,827.60 124.24,827.59 125.12,827.58 126.00,827.57 126.88,827.56 127.76,827.55 128.64,827.54 129.52,827.53 130.40,827.53 131.28,827.52 132.16,827.51 133.04,827.50 133.92,827.49 134.80,827.48 135.68,827.47 136.56,827.46 137.44,827.45 138.32,827.44 139.20,827.43 140.08,827.42 140.96,827.41 141.84,827.40 142.72,827.39 143.60,827.38 144.48,827.37 145.36,827.36 146.24,827.35 147.12,827.34 148.00,827.33 148.88,827.32 149.76,827.31 150.64,827.30 151.52,827.29 152.40,827.28 153.28,827.27 154.16,827.27 155.04,827.26 155.92,827.25 156.80,827.23 157.68,827.22 158.56,827.21 159.44,827.20 160.32,827.19 161.20,827.18 162.08,827.17 162.96,827.16 163.84,827.15 164.72,827.14 165.60,827.13 166.48,827.12 167.36,827.11 168.24,827.10 169.12,827.09 170.00,827.08 170.88,827.07 171.76,827.06 172.64,827.05 173.52,827.04 174.40,827.03 175.28,827.02 176.16,827.01 177.04,827.00 177.92,826.99 178.80,826.97 179.68,826.96 180.56,826.95 181.44,826.94 182.32,826.93 183.20,826.92 184.08,826.91 184.96,826.90 185.84,826.89 186.72,826.88 187.60,826.87 188.48,826.85 189.36,826.84 190.24,826.83 191.12,826.82 192.00,826.81 192.88,826.80 193.76,826.79 194.64,826.78 195.52,826.76 196.40,826.75 197.28,826.74 198.16,826.73 199.04,826.72 199.92,826.71 200.80,826.70 201.68,826.68 202.56,826.67 203.44,826.66 204.32,826.65 205.20,826.64 206.08,826.63 206.96,826.61 207.84,826.60 208.72,826.59 209.60,826.58 210.48,826.57 211.36,826.55 212.24,826.54 213.12,826.53 214.00,826.52 214.88,826.51 215.76,826.49 216.64,826.48 217.52,826.47 218.40,826.46 219.28,826.45 220.16,826.43 221.04,826.42 221.92,826.41 222.80,826.40 223.68,826.38 224.56,826.37 225.44,826.36 226.32,826.35 227.20,826.33 228.08,826.32 228.96,826.31 229.84,826.30 230.72,826.28 231.60,826.27 232.48,826.26 233.36,826.25 234.24,826.23 235.12,826.22 236.00,826.21 236.88,826.19 237.76,826.18 238.64,826.17 239.52,826.15 240.40,826.14 241.28,826.13 242.16,826.12 243.04,826.10 243.92,826.09 244.80,826.08 245.68,826.06 246.56,826.05 247.44,826.04 248.32,826.02 249.20,826.01 250.08,825.99 250.96,825.98 251.84,825.97 252.72,825.95 253.60,825.94 254.48,825.93 255.36,825.91 256.24,825.90 257.12,825.88 258.00,825.87 258.88,825.86 259.76,825.84 260.64,825.83 261.52,825.81 262.40,825.80 263.28,825.79 264.16,825.77 265.04,825.76 265.92,825.74 266.80,825.73 267.68,825.71 268.56,825.70 269.44,825.69 270.32,825.67 271.20,825.66 272.08,825.64 272.96,825.63 273.84,825.61 274.72,825.60 275.60,825.58 276.48,825.57 277.36,825.55 278.24,825.54 279.12,825.52 280.00,825.51 280.88,825.49 281.76,825.48 282.64,825.46 283.52,825.45 284.40,825.43 285.28,825.42 286.16,825.40 287.04,825.39 287.92,825.37 288.80,825.36 289.68,825.34 290.56,825.33 291.44,825.31 292.32,825.29 293.20,825.28 294.08,825.26 294.96,825.25 295.84,825.23 296.72,825.21 297.60,825.20 298.48,825.18 299.36,825.17 300.24,825.15 301.12,825.13 302.00,825.12 302.88,825.10 303.76,825.09 304.64,825.07 305.52,825.05 306.40,825.04 307.28,825.02 308.16,825.00 309.04,824.99 309.92,824.97 310.80,824.95 311.68,824.94 312.56,824.92 313.44,824.90 314.32,824.89 315.20,824.87 316.08,824.85 316.96,824.83 317.84,824.82 318.72,824.80 319.60,824.78 320.48,824.77 321.36,824.75 322.24,824.73 323.12,824.71 324.00,824.70 324.88,824.68 325.76,824.66 326.64,824.64 327.52,824.62 328.40,824.61 329.28,824.59 330.16,824.57 331.04,824.55 331.92,824.53 332.80,824.52 333.68,824.50 334.56,824.48 335.44,824.46 336.32,824.44 337.20,824.43 338.08,824.41 338.96,824.39 339.84,824.37 340.72,824.35 341.60,824.33 342.48,824.31 343.36,824.29 344.24,824.28 345.12,824.26 346.00,824.24 346.88,824.22 347.76,824.20 348.64,824.18 349.52,824.16 350.40,824.14 351.28,824.12 352.16,824.10 353.04,824.08 353.92,824.06 354.80,824.04 355.68,824.02 356.56,824.00 357.44,823.98 358.32,823.96 359.20,823.94 360.08,823.92 360.96,823.90 361.84,823.88 362.72,823.86 363.60,823.84 364.48,823.82 365.36,823.80 366.24,823.78 367.12,823.76 368.00,823.74 368.88,823.72 369.76,823.70 370.64,823.68 371.52,823.66 372.40,823.64 373.28,823.61 374.16,823.59 375.04,823.57 375.92,823.55 376.80,823.53 377.68,823.51 378.56,823.49 379.44,823.46 380.32,823.44 381.20,823.42 382.08,823.40 382.96,823.38 383.84,823.35 384.72,823.33 385.60,823.31 386.48,823.29 387.36,823.27 388.24,823.24 389.12,823.22 390.00,823.20 390.88,823.18 391.76,823.15 392.64,823.13 393.52,823.11 394.40,823.08 395.28,823.06 396.16,823.04 397.04,823.01 397.92,822.99 398.80,822.97 399.68,822.94 400.56,822.92 401.44,822.90 402.32,822.87 403.20,822.85 404.08,822.83 404.96,822.80 405.84,822.78 406.72,822.75 407.60,822.73 408.48,822.70 409.36,822.68 410.24,822.66 411.12,822.63 412.00,822.61 412.88,822.58 413.76,822.56 414.64,822.53 415.52,822.51 416.40,822.48 417.28,822.46 418.16,822.43 419.04,822.41 419.92,822.38 420.80,822.35 421.68,822.33 422.56,822.30 423.44,822.28 424.32,822.25 425.20,822.23 426.08,822.20 426.96,822.17 427.84,822.15 428.72,822.12 429.60,822.09 430.48,822.07 431.36,822.04 432.24,822.01 433.12,821.99 434.00,821.96 434.88,821.93 435.76,821.91 436.64,821.88 437.52,821.85 438.40,821.82 439.28,821.80 440.16,821.77 441.04,821.74 441.92,821.71 442.80,821.68 443.68,821.66 444.56,821.63 445.44,821.60 446.32,821.57 447.20,821.54 448.08,821.51 448.96,821.48 449.84,821.46 450.72,821.43 451.60,821.40 452.48,821.37 453.36,821.34 454.24,821.31 455.12,821.28 456.00,821.25 456.88,821.22 457.76,821.19 458.64,821.16 459.52,821.13 460.40,821.10 461.28,821.07 462.16,821.04 463.04,821.01 463.92,820.98 464.80,820.95 465.68,820.92 466.56,820.88 467.44,820.85 468.32,820.82 469.20,820.79 470.08,820.76 470.96,820.73 471.84,820.70 472.72,820.66 473.60,820.63 474.48,820.60 475.36,820.57 476.24,820.53 477.12,820.50 478.00,820.47 478.88,820.44 479.76,820.40 480.64,820.37 481.52,820.34 482.40,820.30 483.28,820.27 484.16,820.24 485.04,820.20 485.92,820.17 486.80,820.13 487.68,820.10 488.56,820.07 489.44,820.03 490.32,820.00 491.20,819.96 492.08,819.93 492.96,819.89 493.84,819.86 494.72,819.82 495.60,819.79 496.48,819.75 497.36,819.72 498.24,819.68 499.12,819.64 500.00,819.61 500.88,819.57 501.76,819.53 502.64,819.50 503.52,819.46 504.40,819.42 505.28,819.39 506.16,819.35 507.04,819.31 507.92,819.27 508.80,819.24 509.68,819.20 510.56,819.16 511.44,819.12 512.32,819.09 513.20,819.05 514.08,819.01 514.96,818.97 515.84,818.93 516.72,818.89 517.60,818.85 518.48,818.81 519.36,818.77 520.24,818.73 521.12,818.69 522.00,818.65 522.88,818.61 523.76,818.57 524.64,818.53 525.52,818.49 526.40,818.45 527.28,818.41 528.16,818.37 529.04,818.33 529.92,818.28 530.80,818.24 531.68,818.20 532.56,818.16 533.44,818.12 534.32,818.07 535.20,818.03 536.08,817.99 536.96,817.94 537.84,817.90 538.72,817.86 539.60,817.81 540.48,817.77 541.36,817.73 542.24,817.68 543.12,817.64 544.00,817.59 544.88,817.55 545.76,817.50 546.64,817.46 547.52,817.41 548.40,817.37 549.28,817.32 550.16,817.27 551.04,817.23 551.92,817.18 552.80,817.14 553.68,817.09 554.56,817.04 555.44,816.99 556.32,816.95 557.20,816.90 558.08,816.85 558.96,816.80 559.84,816.75 560.72,816.71 561.60,816.66 562.48,816.61 563.36,816.56 564.24,816.51 565.12,816.46 566.00,816.41 566.88,816.36 567.76,816.31 568.64,816.26 569.52,816.21 570.40,816.16 571.28,816.11 572.16,816.05 573.04,816.00 573.92,815.95 574.80,815.90 575.68,815.85 576.56,815.79 577.44,815.74 578.32,815.69 579.20,815.63 580.08,815.58 580.96,815.53 581.84,815.47 582.72,815.42 583.60,815.36 584.48,815.31 585.36,815.25 586.24,815.20 587.12,815.14 588.00,815.08 588.88,815.03 589.76,814.97 590.64,814.92 591.52,814.86 592.40,814.80 593.28,814.74 594.16,814.69 595.04,814.63 595.92,814.57 596.80,814.51 597.68,814.45 598.56,814.39 599.44,814.33 600.32,814.27 601.20,814.21 602.08,814.15 602.96,814.09 603.84,814.03 604.72,813.97 605.60,813.91 606.48,813.84 607.36,813.78 608.24,813.72 609.12,813.66 610.00,813.59 610.88,813.53 611.76,813.47 612.64,813.40 613.52,813.34 614.40,813.27 615.28,813.21 616.16,813.14 617.04,813.08 617.92,813.01 618.80,812.94 619.68,812.88 620.56,812.81 621.44,812.74 622.32,812.68 623.20,812.61 624.08,812.54 624.96,812.47 625.84,812.40 626.72,812.33 627.60,812.26 628.48,812.19 629.36,812.12 630.24,812.05 631.12,811.98 632.00,811.91 632.88,811.84 633.76,811.76 634.64,811.69 635.52,811.62 636.40,811.54 637.28,811.47 638.16,811.40 639.04,811.32 639.92,811.25 640.80,811.17 641.68,811.10 642.56,811.02 643.44,810.94 644.32,810.87 645.20,810.79 646.08,810.71 646.96,810.63 647.84,810.55 648.72,810.47 649.60,810.39 650.48,810.31 651.36,810.23 652.24,810.15 653.12,810.07 654.00,809.99 654.88,809.91 655.76,809.83 656.64,809.74 657.52,809.66 658.40,809.58 659.28,809.49 660.16,809.41 661.04,809.32 661.92,809.24 662.80,809.15 663.68,809.06 664.56,808.98 665.44,808.89 666.32,808.80 667.20,808.71 668.08,808.62 668.96,808.53 669.84,808.44 670.72,808.35 671.60,808.26 672.48,808.17 673.36,808.08 674.24,807.99 675.12,807.89 676.00,807.80 676.88,807.70 677.76,807.61 678.64,807.51 679.52,807.42 680.40,807.32 681.28,807.23 682.16,807.13 683.04,807.03 683.92,806.93 684.80,806.83 685.68,806.73 686.56,806.63 687.44,806.53 688.32,806.43 689.20,806.33 690.08,806.22 690.96,806.12 691.84,806.02 692.72,805.91 693.60,805.81 694.48,805.70 695.36,805.60 696.24,805.49 697.12,805.38 698.00,805.27 698.88,805.16 699.76,805.06 700.64,804.95 701.52,804.83 702.40,804.72 703.28,804.61 704.16,804.50 705.04,804.38 705.92,804.27 706.80,804.16 707.68,804.04 708.56,803.92 709.44,803.81 710.32,803.69 711.20,803.57 712.08,803.45 712.96,803.33 713.84,803.21 714.72,803.09 715.60,802.97 716.48,802.84 717.36,802.72 718.24,802.60 719.12,802.47 720.00,802.34 720.88,802.22 721.76,802.09 722.64,801.96 723.52,801.83 724.40,801.70 725.28,801.57 726.16,801.44 727.04,801.31 727.92,801.17 728.80,801.04 729.68,800.90 730.56,800.77 731.44,800.63 732.32,800.49 733.20,800.36 734.08,800.22 734.96,800.08 735.84,799.93 736.72,799.79 737.60,799.65 738.48,799.50 739.36,799.36 740.24,799.21 741.12,799.07 742.00,798.92 742.88,798.77 743.76,798.62 744.64,798.47 745.52,798.32 746.40,798.16 747.28,798.01 748.16,797.85 749.04,797.70 749.92,797.54 750.80,797.38 751.68,797.22 752.56,797.06 753.44,796.90 754.32,796.74 755.20,796.57 756.08,796.41 756.96,796.24 757.84,796.08 758.72,795.91 759.60,795.74 760.48,795.57 761.36,795.39 762.24,795.22 763.12,795.05 764.00,794.87 764.88,794.69 765.76,794.52 766.64,794.34 767.52,794.16 768.40,793.97 769.28,793.79 770.16,793.61 771.04,793.42 771.92,793.23 772.80,793.04 773.68,792.85 774.56,792.66 775.44,792.47 776.32,792.27 777.20,792.08 778.08,791.88 778.96,791.68 779.84,791.48 780.72,791.28 781.60,791.08 782.48,790.87 783.36,790.67 784.24,790.46 785.12,790.25 786.00,790.04 786.88,789.83 787.76,789.61 788.64,789.40 789.52,789.18 790.40,788.96 791.28,788.74 792.16,788.52 793.04,788.29 793.92,788.07 794.80,787.84 795.68,787.61 796.56,787.38 797.44,787.14 798.32,786.91 799.20,786.67 800.08,786.43 800.96,786.19 801.84,785.95 802.72,785.70 803.60,785.46 804.48,785.21 805.36,784.96 806.24,784.71 807.12,784.45 808.00,784.19 808.88,783.94 809.76,783.67 810.64,783.41 811.52,783.15 812.40,782.88 813.28,782.61 814.16,782.34 815.04,782.06 815.92,781.79 816.80,781.51 817.68,781.23 818.56,780.94 819.44,780.66 820.32,780.37 821.20,780.08 822.08,779.78 822.96,779.49 823.84,779.19 824.72,778.89 825.60,778.58 826.48,778.28 827.36,777.97 828.24,777.65 829.12,777.34 830.00,777.02 830.88,776.70 831.76,776.38 832.64,776.05 833.52,775.72 834.40,775.39 835.28,775.06 836.16,774.72 837.04,774.38 837.92,774.03 838.80,773.68 839.68,773.33 840.56,772.98 841.44,772.62 842.32,772.26 843.20,771.90 844.08,771.53 844.96,771.16 845.84,770.79 846.72,770.41 847.60,770.03 848.48,769.64 849.36,769.25 850.24,768.86 851.12,768.46 852.00,768.06 852.88,767.66 853.76,767.25 854.64,766.84 855.52,766.42 856.40,766.00 857.28,765.58 858.16,765.15 859.04,764.71 859.92,764.28 860.80,763.83 861.68,763.39 862.56,762.94 863.44,762.48 864.32,762.02 865.20,761.56 866.08,761.09 866.96,760.61 867.84,760.13 868.72,759.65 869.60,759.16 870.48,758.66 871.36,758.16 872.24,757.66 873.12,757.15 874.00,756.63 874.88,756.11 875.76,755.58 876.64,755.05 877.52,754.51 878.40,753.96 879.28,753.41 880.16,752.85 881.04,752.29 881.92,751.72 882.80,751.14 883.68,750.56 884.56,749.97 885.44,749.37 886.32,748.77 887.20,748.16 888.08,747.54 888.96,746.92 889.84,746.29 890.72,745.65 891.60,745.00 892.48,744.35 893.36,743.69 894.24,743.02 895.12,742.34 896.00,741.65 896.88,740.96 897.76,740.26 898.64,739.54 899.52,738.82 900.40,738.10 901.28,737.36 902.16,736.61 903.04,735.85 903.92,735.09 904.80,734.31 905.68,733.53 906.56,732.73 907.44,731.92 908.32,731.11 909.20,730.28 910.08,729.44 910.96,728.59 911.84,727.73 912.72,726.86 913.60,725.98 914.48,725.08 915.36,724.18 916.24,723.26 917.12,722.33 918.00,721.38 918.88,720.42 919.76,719.45 920.64,718.47 921.52,717.47 922.40,716.46 923.28,715.43 924.16,714.39 925.04,713.33 925.92,712.26 926.80,711.17 927.68,710.07 928.56,708.95 929.44,707.81 930.32,706.66 931.20,705.49 932.08,704.30 932.96,703.09 933.84,701.87 934.72,700.62 935.60,699.36 936.48,698.08 937.36,696.78 938.24,695.45 939.12,694.11 940.00,692.74 940.88,691.35 941.76,689.94 942.64,688.51 943.52,687.05 944.40,685.57 945.28,684.07 946.16,682.54 947.04,680.98 947.92,679.40 948.80,677.79 949.68,676.15 950.56,674.49 951.44,672.79 952.32,671.07 953.20,669.31 954.08,667.52 954.96,665.71 955.84,663.85 956.72,661.97 957.60,660.05 958.48,658.09 959.36,656.10 960.24,654.07 961.12,697.49 962.00,741.94" fill="none" stroke="#d62728" stroke-width="2.2"/>
<line x1="775" y1="650" x2="799" y2="650" stroke="#d62728" stroke-width="2.2"/>
<text x="805" y="654" class="legend">alpha at vNut=1, aNut=0 (deg/s^2)</text>
</svg>
